<?xml version="1.0" standalone="no"?>
<!DOCTYPE svg PUBLIC "-//W3C//DTD SVG 20010904//EN"
 "http://www.w3.org/TR/2001/REC-SVG-20010904/DTD/svg10.dtd">
<svg version="1.0" xmlns="http://www.w3.org/2000/svg"
 width="822.000000pt" height="822.000000pt" viewBox="0 0 822.000000 822.000000"
 preserveAspectRatio="xMidYMid meet">
<metadata>
Created by potrace 1.11, written by Peter Selinger 2001-2013
</metadata>
<g transform="translate(0.000000,822.000000) scale(0.100000,-0.100000)"
fill="#000000" stroke="none">
<path d="M4010 7844 c-138 -23 -154 -27 -255 -60 -71 -23 -282 -119 -295 -133
-3 -4 -32 -24 -65 -45 -33 -21 -82 -57 -110 -79 -52 -42 -245 -233 -280 -277
-97 -121 -209 -285 -273 -400 -50 -90 -174 -343 -177 -360 0 -3 -3 -9 -7 -15
-15 -25 -104 -263 -145 -390 -25 -77 -48 -147 -51 -155 -14 -40 -91 -322 -96
-350 -2 -14 -5 -25 -6 -25 -1 0 -3 -9 -5 -20 -2 -11 -11 -50 -20 -85 -9 -36
-17 -74 -19 -85 -3 -17 -16 -82 -22 -107 -1 -5 -2 -9 -4 -10 -2 -3 -4 -16 -14
-80 -3 -21 -10 -58 -16 -83 -6 -25 -12 -63 -15 -83 -3 -20 -7 -48 -10 -62 -13
-62 -17 -87 -19 -119 -2 -25 -10 -37 -32 -50 -16 -9 -31 -18 -34 -21 -3 -3
-26 -18 -51 -33 -125 -72 -335 -256 -419 -366 -14 -18 -31 -39 -37 -46 -7 -8
-13 -16 -13 -19 0 -2 -18 -32 -40 -65 -109 -164 -190 -407 -216 -649 -6 -56
-11 -66 -38 -86 -69 -50 -312 -231 -322 -241 -6 -5 -35 -30 -64 -55 -175 -147
-354 -329 -488 -497 -50 -63 -152 -223 -192 -303 -23 -47 -48 -96 -55 -110
-22 -44 -64 -179 -82 -263 -18 -87 -24 -309 -11 -403 18 -123 97 -340 165
-451 20 -32 41 -67 47 -78 23 -42 126 -172 178 -225 90 -92 208 -190 227 -190
6 0 11 -3 11 -8 0 -6 44 -33 130 -81 45 -25 81 -42 130 -61 84 -34 105 -41
110 -42 3 0 16 -5 30 -10 69 -28 221 -63 360 -83 96 -14 192 -19 375 -20 236
0 322 4 348 17 11 6 17 5 17 -2 0 -6 4 -9 8 -6 5 3 28 7 53 11 98 12 116 15
178 25 35 6 66 8 69 6 3 -3 11 -1 18 5 7 5 29 12 51 14 21 2 50 6 66 9 15 3
37 8 50 10 51 10 216 48 262 61 28 8 61 16 75 19 31 6 240 64 260 73 8 3 22 7
30 9 8 2 69 22 135 44 66 22 125 42 130 43 6 2 39 13 75 25 36 12 69 22 74 21
5 0 12 3 15 8 6 8 176 71 219 80 14 4 36 -4 60 -20 97 -66 365 -172 497 -196
33 -6 74 -14 90 -18 44 -9 352 -9 409 0 90 15 211 46 282 72 38 14 74 27 79
29 25 7 72 27 93 39 21 12 32 10 100 -23 42 -20 94 -43 115 -51 20 -7 37 -17
37 -23 0 -5 3 -7 6 -4 3 4 49 -12 102 -33 88 -36 374 -135 412 -143 8 -2 22
-6 30 -9 36 -13 230 -56 285 -62 17 -2 44 -6 60 -9 112 -21 409 -29 520 -14
75 10 207 39 227 49 10 5 18 6 18 2 0 -4 5 -2 12 5 7 7 18 12 25 12 7 0 36 11
65 23 29 13 56 24 61 25 17 4 187 115 223 147 131 115 246 260 328 417 53 101
103 219 112 267 3 13 10 34 16 45 6 12 10 22 9 24 -1 1 0 15 3 30 26 119 31
165 31 322 0 223 -23 375 -82 535 -8 22 -14 41 -14 43 1 1 -6 18 -14 38 -8 20
-15 40 -15 45 0 28 -156 339 -228 454 -79 126 -211 316 -267 382 -5 7 -15 18
-20 25 -140 174 -220 263 -435 478 -194 195 -247 245 -386 367 -84 73 -286
243 -318 266 -14 10 -18 35 -21 147 -3 74 -7 146 -10 160 -3 14 -8 40 -11 59
-20 117 -26 144 -65 261 -31 93 -122 280 -154 316 -5 6 -17 22 -25 34 -70 105
-270 309 -349 354 -9 5 -25 18 -35 28 -11 10 -23 18 -26 18 -3 0 -7 17 -8 38
-2 20 -5 51 -7 67 -2 17 -7 59 -10 95 -3 36 -7 74 -9 85 -2 11 -7 45 -11 75
-4 30 -9 64 -11 75 -2 11 -6 34 -9 50 -3 17 -7 41 -10 55 -3 14 -7 41 -10 60
-3 19 -10 51 -15 70 -5 19 -16 62 -24 95 -118 490 -317 855 -586 1075 -99 82
-189 134 -325 191 -163 68 -487 97 -695 63z m435 -348 c110 -19 252 -80 345
-148 80 -59 197 -183 255 -268 28 -41 52 -77 55 -80 12 -12 101 -184 134 -260
27 -62 67 -165 71 -180 2 -8 15 -49 28 -90 14 -41 30 -95 37 -120 6 -25 14
-52 17 -60 3 -8 7 -22 9 -30 1 -8 12 -55 24 -105 28 -118 35 -149 46 -218 l7
-37 -59 26 c-33 14 -66 28 -74 29 -8 2 -40 13 -71 24 -31 11 -67 22 -80 25
-13 2 -51 12 -84 20 -33 9 -80 19 -105 22 -25 3 -58 8 -75 12 -66 14 -446 5
-502 -12 -10 -3 -34 -8 -53 -11 -225 -37 -522 -184 -706 -350 -62 -56 -117
-110 -145 -145 -19 -23 -40 -49 -48 -57 -36 -38 -124 -166 -168 -243 -26 -47
-51 -86 -55 -88 -4 -2 -8 -10 -8 -18 0 -8 -6 -14 -12 -15 -7 0 -20 -2 -28 -3
-8 -2 -35 -6 -60 -9 -25 -4 -56 -8 -70 -11 -14 -3 -38 -7 -55 -10 -48 -8 -88
-16 -115 -22 -14 -3 -36 -8 -50 -10 -14 -3 -43 -10 -65 -16 -22 -5 -47 -11
-55 -13 -8 -2 -40 -10 -70 -19 -30 -9 -59 -17 -65 -18 -5 0 -52 -16 -104 -35
-79 -28 -92 -30 -86 -15 4 9 8 24 10 33 5 24 140 438 154 474 5 11 17 45 28
75 50 134 168 429 189 472 14 27 24 50 23 53 0 3 40 88 89 188 97 197 233 437
289 512 5 6 28 39 52 75 25 36 48 67 51 70 3 3 21 25 40 50 19 25 44 56 55 69
30 37 197 202 236 234 90 76 289 193 303 180 3 -4 6 -2 6 4 0 14 124 52 216
67 82 13 229 14 299 2z m772 -2080 c77 -7 241 -44 249 -57 3 -5 8 -7 12 -5 15
9 77 -30 78 -49 1 -11 4 -45 8 -75 15 -152 17 -233 4 -223 -35 27 -220 143
-228 143 -6 0 -10 3 -10 8 0 4 -17 16 -37 27 -21 11 -42 23 -48 28 -26 19
-250 155 -290 175 -16 8 4 -10 90 -79 44 -35 85 -69 90 -75 6 -6 37 -33 70
-60 33 -27 62 -51 65 -54 3 -3 39 -34 80 -70 41 -36 86 -75 101 -88 14 -13 52
-47 84 -76 l58 -53 3 -99 c1 -54 4 -99 5 -99 1 0 3 -181 4 -402 1 -222 0 -403
-2 -403 -3 0 -41 27 -86 59 -45 33 -112 74 -149 91 -72 34 -166 62 -179 54 -4
-2 -10 -1 -13 4 -4 7 -204 7 -236 -1 -8 -2 -31 -7 -50 -11 -268 -58 -466 -248
-506 -487 -17 -104 -7 -263 25 -367 5 -18 11 -36 12 -40 15 -60 57 -148 104
-222 93 -146 245 -261 435 -329 19 -7 44 -17 55 -22 11 -4 58 -21 105 -37 183
-62 273 -112 352 -194 61 -63 90 -116 125 -233 12 -42 11 -241 -2 -297 -43
-187 -133 -378 -229 -486 -88 -100 -191 -189 -210 -184 -10 3 -88 39 -233 109
-29 14 -53 27 -53 28 0 1 49 27 109 58 140 71 296 154 461 244 25 14 52 32 60
41 13 14 13 15 0 5 -8 -5 -107 -43 -220 -83 -113 -39 -214 -76 -225 -81 -11
-5 -90 -31 -176 -59 l-157 -51 -78 39 c-79 39 -166 85 -256 136 -27 14 -69 38
-95 52 -79 43 -253 144 -343 199 -47 29 -92 54 -100 57 -8 2 34 27 92 55 59
28 124 63 145 77 60 41 130 114 173 180 22 33 43 66 48 71 29 39 100 275 87
295 -3 5 -2 11 2 13 18 12 3 163 -25 257 -18 59 -79 170 -93 170 -5 0 -9 5 -9
12 0 12 -42 53 -100 96 -19 15 -37 29 -40 33 -6 7 -168 88 -178 89 -4 1 -29 7
-57 15 -129 37 -302 51 -390 32 -22 -5 -51 -11 -65 -14 -37 -7 -42 -9 -75 -22
-16 -6 -43 -17 -60 -23 -46 -18 -214 -130 -270 -181 -40 -37 -149 -128 -222
-187 -24 -19 -139 -78 -174 -89 -36 -11 -87 -20 -139 -23 -14 -1 -47 2 -75 7
-47 8 -56 10 -87 18 -48 14 -141 61 -188 96 -55 40 -180 164 -180 178 0 7 -4
13 -8 13 -27 0 -154 217 -190 325 -47 141 -66 255 -43 263 10 3 167 113 188
131 7 6 16 11 21 11 5 0 15 7 22 15 22 27 29 16 25 -37 -11 -154 -26 -672 -19
-665 4 4 21 87 30 147 6 41 35 201 49 270 2 14 6 36 9 50 4 22 59 293 68 330
1 8 46 41 98 74 52 33 97 62 100 65 3 3 17 13 32 21 15 8 58 33 95 56 214 129
470 274 485 274 4 0 8 3 8 8 0 4 12 12 26 19 l26 12 -7 -67 c-22 -190 -7 -318
51 -442 75 -160 211 -303 364 -380 111 -56 283 -76 387 -43 27 8 53 16 58 17
91 25 215 107 316 209 43 44 79 84 79 88 0 4 6 14 13 21 47 51 111 186 138
291 14 57 17 101 15 207 -2 74 -7 149 -10 165 -6 26 -30 159 -52 275 -12 70
-11 204 2 263 21 88 71 173 143 244 35 35 68 63 72 63 5 0 18 8 29 18 11 9 24
17 28 17 4 1 25 10 47 22 32 16 126 50 165 58 3 1 19 4 35 8 39 9 85 16 160
23 33 3 61 7 62 8 3 2 18 1 130 -8z m648 -276 c102 -81 212 -208 261 -300 10
-19 19 -37 19 -40 1 -3 14 -31 28 -63 15 -32 27 -63 27 -70 0 -7 5 -18 12 -25
7 -7 9 -12 5 -12 -3 0 -2 -11 3 -25 5 -14 12 -37 14 -51 l5 -24 -32 22 c-18
12 -34 25 -37 28 -8 9 -216 160 -320 234 l-95 66 0 170 0 169 25 -16 c14 -9
52 -37 85 -63z m-2700 -176 c-40 -98 -83 -218 -90 -249 -2 -11 -15 -61 -29
-112 -13 -50 -27 -106 -30 -124 -6 -38 -9 -40 -136 -95 -91 -40 -120 -52 -258
-115 -34 -16 -63 -29 -65 -29 -1 0 -87 -42 -192 -94 -104 -52 -191 -93 -192
-92 -3 3 76 318 134 534 l46 172 111 54 c107 52 309 132 354 141 12 2 26 7 32
10 9 5 140 42 185 51 11 2 52 12 90 23 39 10 71 17 73 16 1 -1 -14 -42 -33
-91z m2689 -374 c44 -41 156 -150 248 -243 l169 -167 -6 -98 c-3 -53 -8 -108
-10 -122 -2 -14 -7 -45 -10 -70 -11 -78 -15 -102 -41 -230 -15 -69 -30 -133
-35 -142 -6 -10 -8 -18 -5 -18 3 0 -6 -33 -20 -72 -13 -40 -24 -74 -24 -76 2
-10 -13 -52 -19 -52 -3 1 -24 26 -46 57 -47 66 -56 76 -138 167 -72 81 -123
132 -196 200 l-53 49 7 66 c8 70 11 92 19 181 3 30 8 75 11 100 12 105 39 472
39 537 0 39 -2 40 110 -67z m-3787 -47 c-4 -8 -17 -103 -22 -173 -2 -19 -6
-60 -10 -90 -4 -30 -9 -73 -11 -95 -2 -22 -6 -71 -10 -110 -4 -38 -7 -80 -8
-93 -2 -23 -3 -24 -138 -96 -40 -21 -80 -43 -88 -50 -19 -14 -58 -36 -65 -36
-6 0 2 124 10 150 2 8 7 29 10 45 3 17 7 35 9 40 21 77 29 102 34 110 4 6 7
16 8 23 4 23 46 103 94 175 49 75 165 207 182 207 5 0 7 -3 5 -7z m4393 -564
c36 -39 76 -83 90 -98 30 -32 141 -157 167 -187 10 -12 38 -46 63 -75 25 -29
51 -61 58 -71 8 -10 23 -29 35 -41 12 -12 33 -38 47 -56 14 -19 30 -39 35 -45
6 -6 31 -38 55 -71 25 -33 48 -62 51 -65 12 -10 146 -198 204 -285 33 -49 62
-92 65 -95 3 -3 12 -16 20 -30 8 -14 39 -65 69 -115 186 -308 327 -654 366
-900 3 -22 9 -56 12 -75 10 -69 8 -236 -5 -310 -16 -96 -16 -97 -30 -145 -6
-22 -10 -43 -9 -46 1 -4 -6 -16 -16 -27 -10 -11 -19 -29 -20 -41 -1 -11 -5
-21 -9 -21 -4 0 -8 -5 -8 -12 0 -11 -49 -93 -80 -132 -40 -52 -126 -137 -163
-163 -23 -15 -44 -31 -47 -34 -3 -4 -41 -24 -85 -46 -115 -56 -203 -81 -350
-100 -65 -9 -323 -9 -400 0 -138 16 -191 24 -325 54 -63 14 -119 26 -125 27
-5 1 -14 4 -20 7 -5 4 -28 10 -50 14 -53 11 -54 11 -102 29 -24 8 -43 13 -43
9 0 -3 -6 -1 -12 4 -7 5 -54 23 -105 38 -102 31 -100 24 -23 85 222 174 405
400 520 642 46 98 95 229 104 279 3 13 5 25 5 27 1 1 1 4 2 7 0 2 5 19 10 37
5 18 12 53 15 77 3 25 8 49 11 54 9 15 11 300 3 358 -5 30 -11 72 -14 94 -6
38 -23 118 -30 140 -1 6 -8 30 -15 55 -6 25 -16 54 -20 65 -5 11 -19 47 -32
80 -20 54 -46 112 -70 155 -4 8 -18 35 -30 60 -12 25 -37 66 -54 91 l-32 46
33 89 c77 205 156 452 169 529 2 11 6 34 10 50 11 49 26 129 27 143 2 21 11
14 78 -59z m-5195 -824 c4 -28 9 -63 12 -80 3 -16 7 -39 9 -50 7 -44 15 -81
24 -110 36 -123 45 -151 51 -160 3 -5 12 -31 19 -57 7 -27 17 -48 21 -48 5 0
9 -7 9 -16 0 -21 90 -189 143 -269 215 -320 528 -547 897 -648 149 -41 288
-58 491 -61 l116 -1 49 -60 c27 -33 53 -65 59 -71 5 -6 30 -36 55 -65 85 -102
236 -255 339 -345 94 -82 92 -76 30 -91 -97 -23 -104 -24 -134 -29 -16 -3 -46
-9 -65 -14 -19 -5 -84 -19 -145 -31 -147 -28 -146 -28 -175 -34 -14 -2 -41 -7
-60 -10 -19 -3 -60 -10 -90 -15 -75 -13 -107 -18 -160 -25 -90 -12 -116 -15
-135 -19 -26 -5 -151 -18 -295 -30 -169 -15 -520 -21 -625 -12 -22 3 -78 7
-125 11 -94 8 -125 12 -155 18 -11 3 -42 8 -69 11 -27 4 -53 9 -57 11 -4 3
-24 7 -45 11 -70 11 -273 82 -364 128 -98 49 -218 134 -286 201 -111 112 -216
297 -239 427 -3 12 -8 43 -13 68 -10 52 -3 285 8 285 1 0 4 12 6 27 13 78 103
298 157 383 77 122 175 261 212 301 5 6 30 36 55 65 79 95 457 464 467 455 1
-1 5 -24 8 -51z m2525 -1372 c26 -18 31 -22 69 -53 13 -11 27 -20 31 -20 3 0
15 -8 26 -18 18 -17 139 -104 333 -239 49 -35 93 -63 99 -63 6 0 12 -3 14 -8
2 -4 36 -29 76 -56 69 -45 79 -56 49 -62 -31 -7 -57 -14 -117 -32 -98 -31
-184 -56 -196 -58 -20 -3 -248 -65 -274 -74 -76 -27 -91 -24 -180 36 -79 52
-217 161 -300 235 -124 110 -283 276 -276 287 3 5 36 13 73 17 90 11 88 10
163 25 80 15 76 14 125 28 22 6 51 13 65 16 14 2 59 16 100 30 91 30 89 30
120 9z m1027 -692 c72 -43 137 -81 145 -84 8 -3 4 -8 -12 -15 -14 -6 -43 -18
-65 -28 -22 -10 -44 -19 -50 -20 -5 -1 -34 -12 -63 -23 -29 -10 -67 -22 -85
-25 -17 -2 -43 -8 -57 -11 -49 -13 -246 -13 -320 0 -95 17 -190 46 -170 53 24
7 367 157 450 196 41 19 80 35 86 36 6 0 70 -35 141 -79z"/>
</g>
</svg>
