<?xml version="1.0" encoding="utf-8"?>
<!-- Generator: Adobe Illustrator 23.0.1, SVG Export Plug-In . SVG Version: 6.00 Build 0)  -->
<svg version="1.1" id="Layer_1" xmlns="http://www.w3.org/2000/svg" xmlns:xlink="http://www.w3.org/1999/xlink" x="0px" y="0px"
	 viewBox="0 0 482.6 440.4" style="enable-background:new 0 0 482.6 440.4;" xml:space="preserve">
<style type="text/css">
	.st0{fill:#FFFFFF;stroke:#000000;stroke-miterlimit:10;}
	.st1{display:none;fill:none;stroke:#000000;stroke-width:6;stroke-miterlimit:10;}
	.st2{display:none;}
	.st3{display:inline;}
	.st4{display:inline;fill:none;stroke:#000000;stroke-width:6;stroke-miterlimit:10;}
	.st5{display:none;fill:#FFFFFF;stroke:#000000;stroke-width:4;stroke-miterlimit:10;}
	.st6{display:inline;stroke:#000000;stroke-width:0.2665;stroke-miterlimit:10;}
	.st7{display:none;fill:none;stroke:#000000;stroke-width:2.4106;stroke-miterlimit:10;}
	.st8{display:inline;fill:none;stroke:#000000;stroke-width:1.466;stroke-miterlimit:10;}
	.st9{display:inline;fill:none;stroke:#000000;stroke-width:1.5019;stroke-miterlimit:10;}
	.st10{display:none;fill:none;stroke:#FFFFFF;stroke-width:4;stroke-miterlimit:10;}
	.st11{display:none;fill:none;stroke:#FFFFFF;stroke-width:3.804;stroke-miterlimit:10;}
	.st12{display:inline;fill:none;stroke:#000000;stroke-width:2.4106;stroke-miterlimit:10;}
	.st13{display:inline;fill:none;stroke:#FFFFFF;stroke-width:4;stroke-miterlimit:10;}
	.st14{display:inline;fill:none;stroke:#FFFFFF;stroke-width:3.804;stroke-miterlimit:10;}
	.st15{fill:#993333;}
	.st16{display:none;fill:#993333;}
</style>
<rect class="st0" width="482.6" height="440.4"/>
<g>
	<g>
		<g>
			<circle class="st1" cx="243" cy="258.8" r="241.4"/>
			<circle class="st1" cx="243" cy="258.8" r="241.4"/>
			<g class="st2">
				<path class="st3" d="M430.1,403.1c87.9-67.5-51.4-252-51.4-252s81.3,120.3,16.9,167.7c-64.3,47.5-152.3-60-152.3-60
					S342.2,470.6,430.1,403.1z"/>
				<circle class="st4" cx="243" cy="258.8" r="241.4"/>
				<path class="st3" d="M298.7,252.7c5.8,13.1,15.9,31.6,21.4,44.7c3,7.3,0,15.6-7,19.3c-21.7,11.3-70.5,30.3-94.2-11.1
					c-0.2-0.3-0.4-0.7-0.5-1c-12.4-26.2-36.1-35.2-61.2-36.2c-16-0.6-20.4-22.3-5.9-29C207.3,213.4,274.3,197.4,298.7,252.7z"/>
				<circle class="st4" cx="243" cy="258.8" r="241.4"/>
			</g>
			<g class="st2">
				<path class="st3" d="M430.1,403.1c87.9-67.5-51.4-252-51.4-252s81.3,120.3,16.9,167.7c-64.3,47.5-152.3-60-152.3-60
					S342.2,470.6,430.1,403.1z"/>
				<circle class="st4" cx="243" cy="258.8" r="241.4"/>
				<path class="st3" d="M214.1,217.3c19.4-6.4,50.5-20.3,60-19.3c0,0,41.9,79-15.8,104.2C182.8,328.6,227.8,453,227.8,453
					S108.8,251.8,214.1,217.3z"/>
				<circle class="st4" cx="243" cy="258.8" r="241.4"/>
			</g>
			<g class="st2">
				<path class="st3" d="M430.1,403.1c87.9-67.5-51.4-252-51.4-252s81.3,120.3,16.9,167.7c-64.3,47.5-152.3-60-152.3-60
					S342.2,470.6,430.1,403.1z"/>
				<circle class="st4" cx="243" cy="258.8" r="241.4"/>
				<path class="st3" d="M176.7,308.9c17-11.4,43.1-33.3,52.5-34.9c0,0,61.8,64.6,13.1,104.6C176.8,424.5,254,532,254,532
					S84.8,370.7,176.7,308.9z"/>
				<circle class="st4" cx="243" cy="258.8" r="241.4"/>
			</g>
			<circle class="st5" cx="410.7" cy="368.4" r="17.2"/>
			<circle class="st1" cx="243" cy="258.8" r="241.4"/>
			<circle class="st1" cx="243" cy="258.8" r="241.4"/>
			<g class="st2">
				<circle class="st4" cx="243" cy="258.8" r="241.4"/>
				<circle class="st4" cx="243" cy="258.8" r="241.4"/>
				<path class="st3" d="M201,264.3c0,0,9.2-81,56.7-92.1c59.7-4,45.1,30.5,55,60.2C314.8,238.8,238.6,114.1,201,264.3z"/>
				<path class="st3" d="M286.9,196.4c0,0,35.8,50.5,14.7,80.8c-31.7,32.5-41,5.7-61.6-6.2C235.5,268.4,341.8,300.3,286.9,196.4z"/>
			</g>
			<g class="st2">
				<path class="st3" d="M206,337.3c0,0-29.8-75.9,6.8-108c50.8-31.6,54.2,5.7,76.8,27.4C294.6,261.5,168.8,187,206,337.3z"/>
			</g>
			<g class="st2">
				<path class="st3" d="M162.9,278c0,0,59.8-55.5,103-33c47.9,35.8,14.4,52.5,2.5,81.5C265.9,332.8,289.3,188.5,162.9,278z"/>
			</g>
			<g class="st2">
				
					<rect x="231.2" y="220.5" transform="matrix(0.7931 -0.609 0.609 0.7931 -84.7709 203.3229)" class="st3" width="51.5" height="12"/>
				
					<rect x="239.9" y="229.2" transform="matrix(0.7931 -0.609 0.609 0.7931 -86.6688 215.1394)" class="st3" width="67" height="12"/>
				
					<rect x="253.6" y="251.3" transform="matrix(0.7931 -0.609 0.609 0.7931 -99.861 220.538)" class="st3" width="42.3" height="12"/>
			</g>
			<g class="st2">
				<path class="st6" d="M272.1,302.2l-5.3-3.1L256.6,282l15.2,8.8l1.4,2.4C273.2,296.3,272.9,299.3,272.1,302.2z"/>
				<path class="st6" d="M271.8,290.8l-15.2-8.8l-3.3-5.5c1.4-4.8,1.8-9.8,1.3-14.6L271.8,290.8z"/>
				<path class="st6" d="M266.8,299.1l-18.3-10.6c-0.1-0.5-0.2-1-0.3-1.5c0.6-0.9,1.2-1.8,1.8-2.8c0.9-1.5,1.7-3.1,2.3-4.7l4.3,2.5
					L266.8,299.1z"/>
				<path class="st6" d="M235.9,322.5L202,303c0-0.1,0-0.1-0.1-0.2c3,0,6-0.4,9-1.1c3.1,0.7,6.3,0.9,9.4,0.7l22.2,12.8
					C240.7,318,238.4,320.4,235.9,322.5z"/>
				<path class="st6" d="M253.3,276.5l-11.5-19.3c4.2,0.6,8.4,1.9,12.4,4l0.4,0.7C255.1,266.8,254.7,271.7,253.3,276.5z"/>
				<path class="st6" d="M248.2,287c-1-4.7-2.9-9.2-5.7-13.1l9.8,5.6c-0.6,1.6-1.4,3.2-2.3,4.7C249.4,285.2,248.8,286.1,248.2,287z"
					/>
				<path class="st6" d="M247.5,288l-12.3-7.1c1.4-3.1,2.3-6.4,2.7-9.6l4.6,2.6c2.8,4,4.7,8.4,5.7,13.1
					C247.9,287.4,247.7,287.7,247.5,288z"/>
				<path class="st6" d="M236.9,256.9c-0.7-2.5-1.6-4.9-2.8-7.2l1.6-2.7l4.7,7.8l-1.3,2.2C238.3,256.9,237.6,256.9,236.9,256.9z"/>
				<path class="st6" d="M241.7,257.2l-1.4-2.4l4.9-8.5l8.9,14.9C250.2,259.1,246,257.8,241.7,257.2z"/>
				<path class="st6" d="M237.5,259.6c-0.2-0.9-0.4-1.8-0.6-2.7c0.7,0,1.4,0,2.1,0.1L237.5,259.6z"/>
				<polygon class="st6" points="240.3,254.8 235.6,247 240.5,238.5 245.2,246.3 				"/>
				<path class="st6" d="M235.6,247l-9.8-16.4c3.7,0.8,7.3,2.1,10.8,4.1c0.9,0.5,1.8,1.1,2.7,1.7l0,0l1.2,2.1L235.6,247z"/>
				<path class="st6" d="M235.2,280.9l-7.5-4.3l4.8-8.4l5.3,3.1C237.5,274.5,236.6,277.8,235.2,280.9z"/>
				<rect x="221.8" y="266.4" transform="matrix(0.5 -0.866 0.866 0.5 -120.7902 331.4026)" class="st6" width="9.7" height="7.9"/>
				<path class="st6" d="M230.8,263.2c-1.2-0.7-2.3-1.3-3.5-1.8l2.2-3.7c2.4-0.5,4.9-0.8,7.5-0.8c0.2,0.9,0.4,1.8,0.6,2.7l-3.4,5.8
					C233.1,264.6,232,263.9,230.8,263.2z"/>
				<path class="st6" d="M229.4,257.7l4.6-8c1.2,2.3,2.1,4.7,2.8,7.2C234.4,256.9,231.9,257.2,229.4,257.7z"/>
				<path class="st6" d="M220.8,272.6l-6.9-4l3.5-6c0.9-0.6,1.8-1.1,2.7-1.6l5.5,3.2L220.8,272.6z"/>
				<path class="st6" d="M207.1,264.7l-6.1-3.5l0.6-1c3-1,6-1.5,9.1-1.7L207.1,264.7z"/>
				<path class="st6" d="M214,268.7l-2.4-1.4c1.8-1.8,3.8-3.3,5.9-4.7L214,268.7z"/>
				<path class="st6" d="M201,291.1l-0.2-0.1c0.3-5.5,1.9-10.9,4.8-16c1.7-2.9,3.7-5.5,6-7.8l2.4,1.4L201,291.1z"/>
				<path class="st6" d="M200.8,291l-6.7-3.8l13-22.5l4.5,2.6c-2.3,2.3-4.3,4.8-6,7.8C202.6,280.1,201.1,285.6,200.8,291z"/>
				<path class="st6" d="M198.1,296.1c-2.3-1.5-4.3-3.3-6.1-5.3l2.1-3.7l6.7,3.8c0,0.2,0,0.4,0,0.5L198.1,296.1z"/>
				<path class="st6" d="M196.1,299.5l-6.9-4l2.7-4.7c1.8,1.9,3.9,3.7,6.1,5.3L196.1,299.5z"/>
				<path class="st6" d="M201.7,302.8l-5.6-3.2l2-3.4c0.7,0.5,1.5,1,2.3,1.4c0.2,0.1,0.4,0.2,0.6,0.3c0.2,1.6,0.5,3.3,1,4.9
					C201.9,302.8,201.8,302.8,201.7,302.8z"/>
				<path class="st6" d="M201,297.9c-0.3-2.1-0.4-4.2-0.3-6.3l0.2-0.4l15.1,8.7c-1.7,0.7-3.4,1.3-5.1,1.7
					C207.6,300.9,204.2,299.7,201,297.9z"/>
				<path class="st6" d="M202,302.8c-0.4-1.6-0.8-3.2-1-4.9c3.2,1.8,6.5,3,9.9,3.7C208,302.4,205,302.8,202,302.8z"/>
				<path class="st6" d="M192,290.9c-2.3-2.5-4.2-5.3-5.8-8.2l7.9,4.5L192,290.9z"/>
				<path class="st6" d="M189.3,295.6l-12.3-7.1c0.6-3.2,1.5-6.4,3-9.5l6.3,3.6c1.5,3,3.4,5.7,5.8,8.2L189.3,295.6z"/>
				<path class="st6" d="M211.6,267.3l-4.5-2.6l3.6-6.3c1.7-0.1,3.4-0.1,5.1,0.1l3,1.8l-1.4,2.4
					C215.4,263.9,213.4,265.5,211.6,267.3z"/>
			</g>
			<g class="st2">
				<polygon class="st3" points="310.7,282.9 296.5,273.5 285,290.9 264.9,277.7 252.6,296.4 234.8,284.7 258.6,248.6 268.8,233 
					321,267.3 				"/>
			</g>
			<circle class="st2" cx="243" cy="258.8" r="54.5"/>
			
				<ellipse transform="matrix(0.4149 -0.9099 0.9099 0.4149 -97.3593 288.1799)" class="st7" cx="175.4" cy="219.8" rx="184.9" ry="166.6"/>
			<circle class="st2" cx="357.8" cy="325.1" r="15.4"/>
			<g class="st2">
				<circle class="st4" cx="243" cy="258.8" r="241.4"/>
				<circle class="st4" cx="243" cy="258.8" r="241.4"/>
				<circle class="st4" cx="243" cy="258.8" r="241.4"/>
				<circle class="st4" cx="243" cy="258.8" r="241.4"/>
				<circle class="st3" cx="243" cy="258.8" r="54.5"/>
				
					<ellipse transform="matrix(0.526 -0.8505 0.8505 0.526 -105.0786 344.9958)" class="st8" cx="257" cy="266.8" rx="77.2" ry="147.6"/>
				<circle class="st3" cx="357.8" cy="325.1" r="15.4"/>
			</g>
			<g class="st2">
				<circle class="st4" cx="243" cy="258.8" r="241.4"/>
				<circle class="st4" cx="243" cy="258.8" r="241.4"/>
				<circle class="st4" cx="243" cy="258.8" r="241.4"/>
				<circle class="st4" cx="243" cy="258.8" r="241.4"/>
				<circle class="st3" cx="243" cy="258.8" r="54.5"/>
				<ellipse transform="matrix(0.5 -0.866 0.866 0.5 -102.6107 324.2595)" class="st9" cx="229.5" cy="251" rx="147.6" ry="81"/>
				<circle class="st3" cx="357.8" cy="325.1" r="15.4"/>
			</g>
			<ellipse transform="matrix(0.5 -0.866 0.866 0.5 -102.667 364.8267)" class="st10" cx="264.6" cy="271.3" rx="92.4" ry="32.7"/>
			<ellipse transform="matrix(0.5 -0.866 0.866 0.5 -130.2453 331.9582)" class="st11" cx="222.4" cy="278.8" rx="32.7" ry="83.6"/>
			<g class="st2">
				<circle class="st4" cx="243" cy="258.8" r="241.4"/>
				<circle class="st4" cx="243" cy="258.8" r="241.4"/>
				<circle class="st4" cx="243" cy="258.8" r="241.4"/>
				<circle class="st4" cx="243" cy="258.8" r="241.4"/>
				<circle class="st3" cx="243" cy="258.8" r="54.5"/>
				
					<ellipse transform="matrix(0.4149 -0.9099 0.9099 0.4149 -97.3593 288.1799)" class="st12" cx="175.4" cy="219.8" rx="184.9" ry="166.6"/>
				<circle class="st3" cx="357.8" cy="325.1" r="15.4"/>
				<ellipse transform="matrix(0.5 -0.866 0.866 0.5 -102.667 364.8267)" class="st13" cx="264.6" cy="271.3" rx="92.4" ry="32.7"/>
				
					<ellipse transform="matrix(0.5 -0.866 0.866 0.5 -130.2453 331.9582)" class="st14" cx="222.4" cy="278.8" rx="32.7" ry="83.6"/>
			</g>
			<g>
				<path class="st15" d="M46,369.5c60.1,98.5,266.6-25.1,266.6-25.1S101,428.6,59,356.6s157.2-164.5,157.2-164.5S-14,271,46,369.5z
					"/>
				<path class="st15" d="M234.7,168c0-0.1-99.8-5.6-128.3,53c-14.5,29.8-9.2,73.3,18.4,99.9c41,39.4,102.6,15.5,115.3,7.1
					c12.2-8.1,20-28,13.5-43.2c-6.6-15.2-25.9-21.4-40.2-20.2c-26.2,2.3-33.1,29.2-55.1,27.1c-13.5-1.3-22.4-12.6-25.7-16.8
					c-13.9-17.5-13.5-42.4-7.3-57.8C144.2,170.3,234.8,168.1,234.7,168z"/>
			</g>
			<path class="st16" d="M40.9,351.8c46.9,105.4,267.6,9.3,267.6,9.3S87.8,417.5,55.4,340.8s177-143,177-143S-6.1,246.4,40.9,351.8z
				"/>
			<path class="st16" d="M242.6,172.5c0-0.1-98.8-14.9-132.7,40.7c-17.2,28.3-16.1,72.1,9,101.2c37.1,43.1,100.7,25.1,114.1,17.9
				c12.9-6.9,22.6-26,17.5-41.7c-5.1-15.8-23.7-23.7-38.1-23.8c-26.3-0.2-35.7,26-57.4,21.8c-13.3-2.6-21.1-14.6-24.1-19.1
				c-12.2-18.7-9.5-43.5-1.8-58.2C152.2,166.3,242.6,172.6,242.6,172.5z"/>
		</g>
	</g>
	<g>
		<g>
			<circle class="st1" cx="243" cy="258.8" r="241.4"/>
			<circle class="st1" cx="243" cy="258.8" r="241.4"/>
			<g class="st2">
				<path class="st3" d="M24.5,348.7c14.5,109.9,244,81.5,244,81.5s-144.8,10.3-153.8-69.3S242.9,259,242.9,259S10,238.8,24.5,348.7
					z"/>
				<circle class="st4" cx="243" cy="258.8" r="241.4"/>
				<path class="st3" d="M220.5,310.1c-14.3-1.5-35.3-2-49.4-3.9c-7.8-1-13.5-7.8-13.2-15.7c1.1-24.4,9-76.2,56.7-76
					c0.4,0,0.8,0,1.2,0.1c28.9,2.3,48.6-13.7,61.9-34.9c8.5-13.6,29.5-6.6,28.1,9.4C300.2,250.6,280.5,316.6,220.5,310.1z"/>
				<circle class="st4" cx="243" cy="258.8" r="241.4"/>
			</g>
			<g class="st2">
				<path class="st3" d="M24.5,348.7c14.5,109.9,244,81.5,244,81.5s-144.8,10.3-153.8-69.3S242.9,259,242.9,259S10,238.8,24.5,348.7
					z"/>
				<circle class="st4" cx="243" cy="258.8" r="241.4"/>
				<path class="st3" d="M293.3,254.5c-4.2,20-7.7,53.9-13.3,61.6c0,0-89.4-3.2-82.3-65.8c14.9-78.6-115.3-101.8-115.3-101.8
					S316.1,146.1,293.3,254.5z"/>
				<circle class="st4" cx="243" cy="258.8" r="241.4"/>
			</g>
			<g class="st2">
				<path class="st3" d="M24.5,348.7c14.5,109.9,244,81.5,244,81.5s-144.8,10.3-153.8-69.3S242.9,259,242.9,259S10,238.8,24.5,348.7
					z"/>
				<circle class="st4" cx="243" cy="258.8" r="241.4"/>
				<path class="st3" d="M232.8,176.4c1.4,20.4,7.3,53.9,3.9,62.9c0,0-86.9,21.2-97.1-41c-7-79.7-138.7-66.7-138.7-66.7
					S225.2,65.8,232.8,176.4z"/>
				<circle class="st4" cx="243" cy="258.8" r="241.4"/>
			</g>
			<circle class="st5" cx="64.2" cy="349.3" r="17.2"/>
			<circle class="st1" cx="243" cy="258.8" r="241.4"/>
			<circle class="st1" cx="243" cy="258.8" r="241.4"/>
			<g class="st2">
				<circle class="st4" cx="243" cy="258.8" r="241.4"/>
				<circle class="st4" cx="243" cy="258.8" r="241.4"/>
				<path class="st3" d="M259.3,219.7c0,0,65.5,48.5,51.5,95.1c-26.3,53.7-49,23.9-79.7,17.5C224.4,331,370.5,327.4,259.3,219.7z"/>
				<path class="st3" d="M275.1,328c0,0-61.6,5.8-77.3-27.7C185.5,256.6,213.4,262,234,250C238.4,247.5,157.7,323.6,275.1,328z"/>
			</g>
			<g class="st2">
				<path class="st3" d="M193.5,187.5c0,0,80.6,12.1,90.1,59.9c1.9,59.8-32.1,44-62.1,52.8C214.9,302.2,342.3,230.4,193.5,187.5z"/>
			</g>
			<g class="st2">
				<path class="st3" d="M266.4,179.9c0,0,18.1,79.5-22.9,105.7c-55,23.6-52.7-13.8-71.8-38.6C167.5,241.6,280.7,334,266.4,179.9z"
					/>
			</g>
			<g class="st2">
				
					<rect x="257.9" y="261.3" transform="matrix(0.9914 -0.1309 0.1309 0.9914 -35.2979 37.014)" class="st3" width="12" height="51.5"/>
				
					<rect x="242.2" y="263.5" transform="matrix(0.9914 -0.1309 0.1309 0.9914 -36.7355 35.0446)" class="st3" width="12" height="67"/>
				
					<rect x="222.4" y="266" transform="matrix(0.9914 -0.1309 0.1309 0.9914 -35.6165 32.368)" class="st3" width="12" height="42.3"/>
			</g>
			<g class="st2">
				<path class="st6" d="M190.9,262.3l5.3-3.1l19.9-0.3l-15.2,8.8h-2.8C195.4,266.3,193,264.4,190.9,262.3z"/>
				<path class="st6" d="M200.8,267.7l15.2-8.8l6.4-0.1c3.4,3.7,7.5,6.5,12,8.4L200.8,267.7z"/>
				<path class="st6" d="M196.2,259.2l18.3-10.6c0.5,0.2,1,0.3,1.5,0.5c0.5,1,1,2,1.5,2.9c0.9,1.5,1.9,3,2.9,4.3l-4.3,2.5
					L196.2,259.2z"/>
				<path class="st6" d="M191.4,220.8l33.8-19.5c0.1,0,0.1,0,0.2,0.1c-1.5,2.6-2.7,5.4-3.5,8.3c-2.1,2.4-3.9,5-5.4,7.8l-22.2,12.8
					C192.9,227.2,191.9,224,191.4,220.8z"/>
				<path class="st6" d="M222.5,258.8l22.5-0.3c-2.6,3.4-5.8,6.4-9.7,8.7h-0.8C230,265.3,225.9,262.5,222.5,258.8z"/>
				<path class="st6" d="M216,249.1c4.6,1.5,9.4,2,14.2,1.6l-9.8,5.6c-1.1-1.4-2.1-2.8-2.9-4.3C216.9,251.1,216.4,250.1,216,249.1z"
					/>
				<path class="st6" d="M215.5,248.1l12.3-7.1c2,2.8,4.4,5.1,7,7.1l-4.6,2.6c-4.8,0.4-9.7-0.2-14.2-1.6
					C215.8,248.8,215.6,248.4,215.5,248.1z"/>
				<path class="st6" d="M247.7,254.5c2.5,0.7,5.1,1,7.7,1.2l1.6,2.7l-9.1,0.1l-1.3-2.2C247,255.7,247.3,255.1,247.7,254.5z"/>
				<path class="st6" d="M245,258.5h2.8l4.9,8.5l-17.4,0.3C239.2,264.9,242.4,261.9,245,258.5z"/>
				<path class="st6" d="M245.1,253.7c0.9,0.3,1.7,0.6,2.6,0.8c-0.4,0.6-0.7,1.2-1.1,1.8L245.1,253.7z"/>
				<polygon class="st6" points="247.8,258.5 256.9,258.3 261.8,266.8 252.7,267 				"/>
				<path class="st6" d="M256.9,258.3L276,258c-2.5,2.8-5.5,5.3-9,7.3c-0.9,0.5-1.9,1-2.8,1.5l0,0h-2.4L256.9,258.3z"/>
				<path class="st6" d="M227.8,241l7.5-4.3l4.8,8.4l-5.3,3.1C232.2,246.1,229.8,243.7,227.8,241z"/>
				<rect x="237.1" y="233.9" transform="matrix(0.866 -0.5 0.5 0.866 -87.1026 152.5032)" class="st6" width="7.9" height="9.7"/>
				<path class="st6" d="M245.2,246c1.2-0.7,2.3-1.4,3.3-2.2l2.2,3.7c-0.8,2.4-1.8,4.7-3,6.8c-0.9-0.2-1.8-0.5-2.6-0.8l-3.4-5.8
					C242.9,247.3,244.1,246.7,245.2,246z"/>
				<path class="st6" d="M250.7,247.6l4.6,8c-2.6-0.1-5.2-0.5-7.7-1.2C248.9,252.3,249.9,250,250.7,247.6z"/>
				<path class="st6" d="M242.1,232.7l6.9-4l3.5,6c0,1,0,2.1,0,3.1L247,241L242.1,232.7z"/>
				<path class="st6" d="M255.9,224.8l6.1-3.5l0.6,1c-0.7,3-1.7,6-3.1,8.8L255.9,224.8z"/>
				<path class="st6" d="M249,228.7l2.4-1.4c0.6,2.5,1,4.9,1.1,7.4L249,228.7z"/>
				<path class="st6" d="M236,206.2l0.2-0.1c4.6,3,8.5,7.1,11.4,12.1c1.7,2.9,2.9,6,3.7,9.1l-2.4,1.4L236,206.2z"/>
				<path class="st6" d="M236.2,206.1l6.7-3.8l13,22.5l-4.5,2.6c-0.8-3.1-2-6.2-3.7-9.1C244.7,213.2,240.8,209.1,236.2,206.1z"/>
				<path class="st6" d="M233.1,201.3c2.5-1.2,5-2.1,7.6-2.7l2.1,3.7l-6.7,3.8c-0.1-0.1-0.3-0.2-0.4-0.3L233.1,201.3z"/>
				<path class="st6" d="M231.2,197.8l6.9-4l2.7,4.7c-2.6,0.6-5.1,1.5-7.6,2.7L231.2,197.8z"/>
				<path class="st6" d="M225.6,201.1l5.6-3.2l2,3.4c-0.8,0.4-1.6,0.8-2.4,1.3c-0.2,0.1-0.4,0.2-0.6,0.4c-1.5-0.6-3.1-1.2-4.7-1.6
					C225.5,201.2,225.5,201.1,225.6,201.1z"/>
				<path class="st6" d="M230.1,202.9c1.9,0.8,3.8,1.8,5.6,2.9l0.2,0.4l-15.1,8.7c0.2-1.8,0.6-3.6,1.1-5.3
					C224.3,207.1,227,204.8,230.1,202.9z"/>
				<path class="st6" d="M225.4,201.3c1.6,0.4,3.2,0.9,4.7,1.6c-3.1,1.9-5.9,4.2-8.2,6.7C222.8,206.7,223.9,203.9,225.4,201.3z"/>
				<path class="st6" d="M240.7,198.6c3.3-0.8,6.7-1,10-0.9l-7.9,4.5L240.7,198.6z"/>
				<path class="st6" d="M238,193.9l12.3-7.1c2.5,2.1,4.8,4.5,6.7,7.3l-6.3,3.6c-3.3-0.2-6.7,0.1-10,0.9L238,193.9z"/>
				<path class="st6" d="M251.4,227.4l4.5-2.6l3.6,6.3c-0.8,1.5-1.6,3-2.6,4.3l-3,1.8l-1.4-2.4C252.4,232.3,252,229.8,251.4,227.4z"
					/>
			</g>
			<g class="st2">
				<polygon class="st3" points="188.3,305.4 203.5,297.7 194.2,279.1 215.7,268.3 205.6,248.3 224.6,238.8 244,277.4 252.4,294 
					196.7,322.1 				"/>
			</g>
			<circle class="st2" cx="243" cy="258.8" r="54.5"/>
			
				<ellipse transform="matrix(0.8143 -0.5805 0.5805 0.8143 -69.9479 221.0901)" class="st7" cx="310.5" cy="219.9" rx="166.6" ry="184.9"/>
			<circle class="st2" cx="128.2" cy="325.1" r="15.4"/>
			<g class="st2">
				<circle class="st4" cx="243" cy="258.8" r="241.4"/>
				<circle class="st4" cx="243" cy="258.8" r="241.4"/>
				<circle class="st4" cx="243" cy="258.8" r="241.4"/>
				<circle class="st4" cx="243" cy="258.8" r="241.4"/>
				<circle class="st3" cx="243" cy="258.8" r="54.5"/>
				
					<ellipse transform="matrix(0.8808 -0.4735 0.4735 0.8808 -99.0606 140.2336)" class="st8" cx="229" cy="266.9" rx="147.6" ry="77.2"/>
				<circle class="st3" cx="128.2" cy="325.1" r="15.4"/>
			</g>
			<g class="st2">
				<circle class="st4" cx="243" cy="258.8" r="241.4"/>
				<circle class="st4" cx="243" cy="258.8" r="241.4"/>
				<circle class="st4" cx="243" cy="258.8" r="241.4"/>
				<circle class="st4" cx="243" cy="258.8" r="241.4"/>
				<circle class="st3" cx="243" cy="258.8" r="54.5"/>
				<ellipse transform="matrix(0.866 -0.5 0.5 0.866 -91.105 161.8633)" class="st9" cx="256.5" cy="250.9" rx="81" ry="147.6"/>
				<circle class="st3" cx="128.2" cy="325.1" r="15.4"/>
			</g>
			<ellipse transform="matrix(0.866 -0.5 0.5 0.866 -105.9572 147.0375)" class="st10" cx="221.4" cy="271.2" rx="32.7" ry="92.4"/>
			<ellipse transform="matrix(0.866 -0.5 0.5 0.866 -83.8676 148.8841)" class="st11" cx="235.9" cy="230.9" rx="83.6" ry="32.7"/>
			<g class="st2">
				<circle class="st4" cx="243" cy="258.8" r="241.4"/>
				<circle class="st4" cx="243" cy="258.8" r="241.4"/>
				<circle class="st4" cx="243" cy="258.8" r="241.4"/>
				<circle class="st4" cx="243" cy="258.8" r="241.4"/>
				<circle class="st3" cx="243" cy="258.8" r="54.5"/>
				
					<ellipse transform="matrix(0.8143 -0.5805 0.5805 0.8143 -69.9479 221.0901)" class="st12" cx="310.5" cy="219.9" rx="166.6" ry="184.9"/>
				<circle class="st3" cx="128.2" cy="325.1" r="15.4"/>
				
					<ellipse transform="matrix(0.866 -0.5 0.5 0.866 -105.9572 147.0375)" class="st13" cx="221.4" cy="271.2" rx="32.7" ry="92.4"/>
				<ellipse transform="matrix(0.866 -0.5 0.5 0.866 -83.8676 148.8841)" class="st14" cx="235.9" cy="230.9" rx="83.6" ry="32.7"/>
			</g>
			<g>
				<path class="st15" d="M245.6,32.9c-115.3,2.8-111.5,243.4-111.5,243.4S167,50.9,250.3,50.5c83.3-0.4,63.9,218.4,63.9,218.4
					S361,30.1,245.6,32.9z"/>
				<path class="st15" d="M325.8,297.1c0.1,0,54.7-83.6,18.3-137.6c-18.5-27.4-58.8-44.7-95.7-34c-54.6,15.8-64.7,81.1-63.8,96.3
					c0.9,14.6,14.3,31.3,30.7,33.3c16.5,1.9,31.5-11.7,37.5-24.7c11.2-23.9-8.7-43.2,4.1-61.3c7.9-11,22.1-13.1,27.4-13.9
					c22.1-3.3,43.4,9.5,53.7,22.6C369.1,217.4,325.7,297,325.8,297.1z"/>
			</g>
			<path class="st16" d="M263.5,37.2C148.8,25.1,121.7,264.3,121.7,264.3S183.2,45,265.9,55.3S301.3,280,301.3,280
				S378.3,49.3,263.5,37.2z"/>
			<path class="st16" d="M317.9,301.6c0.1,0,62.3-78.1,31.1-135.3c-15.9-29.1-54.4-50-92.1-42.8c-55.9,10.6-72.1,74.7-72.5,89.8
				c-0.5,14.6,11.2,32.5,27.4,36s32.4-8.7,39.7-21.1c13.3-22.7-4.6-43.9,9.8-60.6c8.9-10.3,23.2-11,28.6-11.3
				c22.3-1.2,42.4,13.5,51.3,27.5C368.5,226.4,317.8,301.5,317.9,301.6z"/>
		</g>
	</g>
	<g>
		<g>
			<circle class="st1" cx="243" cy="258.8" r="241.4"/>
			<circle class="st1" cx="243" cy="258.8" r="241.4"/>
			<g class="st2">
				<path class="st3" d="M274.4,24.6C172-17.8,81.8,195.1,81.8,195.1s63.5-130.6,136.9-98.5s24.2,162,24.2,162S376.8,67,274.4,24.6z
					"/>
				<circle class="st4" cx="243" cy="258.8" r="241.4"/>
				<path class="st3" d="M209.8,213.6c8.5-11.6,19.4-29.6,28.1-40.9c4.8-6.2,13.6-7.8,20.2-3.6c20.6,13.1,61.5,45.9,37.5,87.1
					c-0.2,0.3-0.4,0.7-0.6,1c-16.5,23.9-12.4,48.9-0.7,71.1c7.5,14.2-9.1,28.8-22.2,19.6C221.5,312.5,174.2,262.4,209.8,213.6z"/>
				<circle class="st4" cx="243" cy="258.8" r="241.4"/>
			</g>
			<g class="st2">
				<path class="st3" d="M274.4,24.6C172-17.8,81.8,195.1,81.8,195.1s63.5-130.6,136.9-98.5s24.2,162,24.2,162S376.8,67,274.4,24.6z
					"/>
				<circle class="st4" cx="243" cy="258.8" r="241.4"/>
				<path class="st3" d="M221.5,304.5c-15.2-13.7-42.8-33.6-46.7-42.4c0,0,47.4-75.8,98.1-38.4c60.6,52.2,145.9-49,145.9-49
					S304.1,378.5,221.5,304.5z"/>
				<circle class="st4" cx="243" cy="258.8" r="241.4"/>
			</g>
			<g class="st2">
				<path class="st3" d="M274.4,24.6C172-17.8,81.8,195.1,81.8,195.1s63.5-130.6,136.9-98.5s24.2,162,24.2,162S376.8,67,274.4,24.6z
					"/>
				<circle class="st4" cx="243" cy="258.8" r="241.4"/>
				<path class="st3" d="M319.5,291.1c-18.4-9-50.3-20.7-56.5-28.1c0,0,25-85.8,84-63.6c72.5,33.8,127.1-86.8,127.1-86.8
					S419,339.9,319.5,291.1z"/>
				<circle class="st4" cx="243" cy="258.8" r="241.4"/>
			</g>
			<circle class="st5" cx="254.1" cy="58.8" r="17.2"/>
			<circle class="st1" cx="243" cy="258.8" r="241.4"/>
			<circle class="st1" cx="243" cy="258.8" r="241.4"/>
			<g class="st2">
				<circle class="st4" cx="243" cy="258.8" r="241.4"/>
				<circle class="st4" cx="243" cy="258.8" r="241.4"/>
				<path class="st3" d="M268.7,292.4c0,0-74.8,32.5-108.1-3c-33.3-49.7,3.8-54.3,24.7-77.7C189.8,206.6,119.9,335,268.7,292.4z"/>
				<path class="st3" d="M167,252c0,0,25.8-56.3,62.6-53.1c44,11.2,25.4,32.7,25.5,56.4C255.1,260.5,229.6,152.5,167,252z"/>
			</g>
			<g class="st2">
				<path class="st3" d="M329.5,251.6c0,0-50.8,63.8-96.9,48.1c-52.7-28.2-22.1-49.8-14.7-80.2C219.5,212.8,217.9,358.9,329.5,251.6
					z"/>
			</g>
			<g class="st2">
				<path class="st3" d="M299.7,318.5c0,0-77.9-24-80.1-72.7c7-59.4,38.3-38.7,69.3-42.9C295.7,202,159,253.9,299.7,318.5z"/>
			</g>
			<g class="st2">
				
					<rect x="202.1" y="237" transform="matrix(0.3824 -0.924 0.924 0.3824 -114.2612 354.6235)" class="st3" width="12" height="51.5"/>
				
					<rect x="201.4" y="210.6" transform="matrix(0.3824 -0.924 0.924 0.3824 -97.4787 342.3964)" class="st3" width="12" height="67"/>
				
					<rect x="219.8" y="210.7" transform="matrix(0.3824 -0.924 0.924 0.3824 -74.82 351.798)" class="st3" width="12" height="42.3"/>
			</g>
			<g class="st2">
				<path class="st6" d="M266,211.9v6.2l-9.7,17.4v-17.7l1.4-2.5C260.3,213.9,263.1,212.7,266,211.9z"/>
				<path class="st6" d="M256.4,217.8v17.6l-3.1,5.6c-4.9,1.1-9.4,3.3-13.3,6.2L256.4,217.8z"/>
				<path class="st6" d="M266,218.1v21.1c-0.4,0.3-0.8,0.7-1.2,1c-1.1-0.1-2.2-0.1-3.3-0.1c-1.8,0-3.5,0.1-5.2,0.4v-5L266,218.1z"/>
				<path class="st6" d="M301.7,233.1v39.1c0,0.1-0.1,0.1-0.1,0.2c-1.5-2.6-3.4-5-5.5-7.2c-1-3-2.4-5.9-4.1-8.5v-25.6
					C295.4,231.2,298.7,232,301.7,233.1z"/>
				<path class="st6" d="M253.2,241l-11,19.6c-1.6-3.9-2.6-8.2-2.7-12.7l0.4-0.7C243.8,244.3,248.3,242.2,253.2,241z"/>
				<path class="st6" d="M264.9,240.2c-3.6,3.2-6.5,7.1-8.5,11.5v-11.3c1.7-0.3,3.5-0.4,5.2-0.4
					C262.7,240.1,263.8,240.1,264.9,240.2z"/>
				<path class="st6" d="M266,240.3v14.2c-3.4,0.4-6.7,1.2-9.7,2.5v-5.3c2.1-4.4,5-8.3,8.5-11.5C265.3,240.2,265.7,240.3,266,240.3z
					"/>
				<path class="st6" d="M244.4,265c-1.8,1.8-3.4,3.9-4.8,6.1h-3.1l4.4-7.9h2.5C243.7,263.8,244.1,264.4,244.4,265z"/>
				<path class="st6" d="M242.3,260.7l-1.4,2.5h-9.8l8.5-15.2C239.7,252.4,240.6,256.7,242.3,260.7z"/>
				<path class="st6" d="M246.4,263.1c-0.7,0.6-1.4,1.2-2,1.9c-0.4-0.6-0.7-1.2-1-1.9H246.4z"/>
				<polygon class="st6" points="240.9,263.1 236.5,271.1 226.6,271.1 231.1,263.1 				"/>
				<path class="st6" d="M236.5,271.1l-9.3,16.7c-1.2-3.6-1.8-7.4-1.8-11.4c0-1.1,0-2.1,0.1-3.2l0,0l1.2-2.1H236.5z"/>
				<path class="st6" d="M266,254.5v8.6h-9.7V257C259.4,255.7,262.7,254.9,266,254.5z"/>
				<rect x="256.4" y="263.1" class="st6" width="9.7" height="7.9"/>
				<path class="st6" d="M252.9,267.1c0,1.3,0.1,2.7,0.2,4h-4.3c-1.7-1.9-3.2-3.9-4.4-6.1c0.6-0.6,1.3-1.3,2-1.9h6.7
					C253,264.5,252.9,265.8,252.9,267.1z"/>
				<path class="st6" d="M248.8,271.1h-9.2c1.4-2.2,3-4.2,4.8-6.1C245.7,267.2,247.2,269.2,248.8,271.1z"/>
				<path class="st6" d="M266,271.1v7.9h-7c-0.9-0.5-1.8-1-2.7-1.6V271L266,271.1L266,271.1z"/>
				<path class="st6" d="M266,287v7.1h-1.2c-2.3-2.1-4.3-4.5-6-7.1H266z"/>
				<path class="st6" d="M266,279v2.7c-2.4-0.7-4.8-1.6-7-2.7H266z"/>
				<path class="st6" d="M292,279v0.2c-4.9,2.5-10.4,3.8-16.2,3.8c-3.4,0-6.6-0.5-9.7-1.3V279H292z"/>
				<path class="st6" d="M292,279.3v7.7h-26v-5.2c3.1,0.9,6.4,1.3,9.7,1.3C281.6,283.1,287.1,281.7,292,279.3z"/>
				<path class="st6" d="M297.8,279c-0.2,2.7-0.7,5.4-1.5,7.9H292v-7.7c0.2-0.1,0.3-0.2,0.5-0.2H297.8z"/>
				<path class="st6" d="M301.7,279v7.9h-5.4c0.8-2.5,1.3-5.2,1.5-7.9H301.7z"/>
				<path class="st6" d="M301.7,272.6v6.4h-4c0.1-0.9,0.1-1.8,0.1-2.7c0-0.2,0-0.5,0-0.7c1.3-1,2.6-2.1,3.7-3.3
					C301.6,272.4,301.7,272.5,301.7,272.6z"/>
				<path class="st6" d="M297.8,275.6c-1.7,1.3-3.5,2.4-5.3,3.4H292v-17.5c1.4,1.1,2.8,2.3,4.1,3.6
					C297.2,268.5,297.8,272,297.8,275.6z"/>
				<path class="st6" d="M301.6,272.3c-1.2,1.2-2.4,2.3-3.7,3.3c-0.1-3.6-0.7-7.2-1.7-10.5C298.2,267.3,300.1,269.7,301.6,272.3z"/>
				<path class="st6" d="M296.3,287c-1,3.3-2.4,6.3-4.2,9.1V287H296.3z"/>
				<path class="st6" d="M301.7,287v14.2c-3.1,1.1-6.3,1.9-9.7,2.1v-7.2c1.8-2.8,3.3-5.8,4.2-9.1H301.7z"/>
				<path class="st6" d="M266,281.8v5.2h-7.2c-0.9-1.4-1.7-2.9-2.5-4.4v-3.5h2.7C261.3,280.2,263.6,281.1,266,281.8z"/>
			</g>
			<g class="st2">
				<polygon class="st3" points="230,188.1 229,205.1 249.8,206.3 248.4,230.4 270.8,231.7 269.5,252.9 226.4,250.4 207.8,249.3 
					211.4,187 				"/>
			</g>
			<circle class="st2" cx="243" cy="258.8" r="54.5"/>
			
				<ellipse transform="matrix(0.9954 -9.559035e-02 9.559035e-02 0.9954 -31.0766 24.77)" class="st7" cx="243" cy="336.7" rx="184.9" ry="166.6"/>
			<circle class="st2" cx="243" cy="126.2" r="15.4"/>
			<g class="st2">
				<circle class="st4" cx="243" cy="258.8" r="241.4"/>
				<circle class="st4" cx="243" cy="258.8" r="241.4"/>
				<circle class="st4" cx="243" cy="258.8" r="241.4"/>
				<circle class="st4" cx="243" cy="258.8" r="241.4"/>
				<circle class="st3" cx="243" cy="258.8" r="54.5"/>
				
					<ellipse transform="matrix(3.033900e-02 -0.9995 0.9995 3.033900e-02 -6.9593 478.1544)" class="st8" cx="243" cy="242.7" rx="147.6" ry="77.2"/>
				<circle class="st3" cx="243" cy="126.2" r="15.4"/>
			</g>
			<g class="st2">
				<circle class="st4" cx="243" cy="258.8" r="241.4"/>
				<circle class="st4" cx="243" cy="258.8" r="241.4"/>
				<circle class="st4" cx="243" cy="258.8" r="241.4"/>
				<circle class="st4" cx="243" cy="258.8" r="241.4"/>
				<circle class="st3" cx="243" cy="258.8" r="54.5"/>
				<ellipse class="st9" cx="243" cy="274.4" rx="147.6" ry="81"/>
				<circle class="st3" cx="243" cy="126.2" r="15.4"/>
			</g>
			<ellipse class="st10" cx="243" cy="233.8" rx="92.4" ry="32.7"/>
			<ellipse class="st11" cx="270.6" cy="266.6" rx="32.7" ry="83.6"/>
			<g class="st2">
				<circle class="st4" cx="243" cy="258.8" r="241.4"/>
				<circle class="st4" cx="243" cy="258.8" r="241.4"/>
				<circle class="st4" cx="243" cy="258.8" r="241.4"/>
				<circle class="st4" cx="243" cy="258.8" r="241.4"/>
				<circle class="st3" cx="243" cy="258.8" r="54.5"/>
				
					<ellipse transform="matrix(0.9954 -9.559035e-02 9.559035e-02 0.9954 -31.0766 24.77)" class="st12" cx="243" cy="336.7" rx="184.9" ry="166.6"/>
				<circle class="st3" cx="243" cy="126.2" r="15.4"/>
				<ellipse class="st13" cx="243" cy="233.8" rx="92.4" ry="32.7"/>
				<ellipse class="st14" cx="270.6" cy="266.6" rx="32.7" ry="83.6"/>
			</g>
			<g>
				<path class="st15" d="M437.4,374c55.3-101.2-155.1-218.3-155.1-218.3S461,296.9,419.7,369.2s-221-53.9-221-53.9
					S382.1,475.3,437.4,374z"/>
				<path class="st15" d="M168.5,311.3c-0.1,0.1,45.1,89.2,110,84.7c33-2.3,68.1-28.6,77.3-65.9c13.6-55.2-37.9-96.6-51.5-103.4
					c-13.1-6.5-34.3-3.3-44.1,9.9c-9.9,13.3-5.6,33.1,2.6,44.9c15.1,21.6,41.8,14,51,34.2c5.6,12.4,0.3,25.7-1.6,30.7
					c-8.2,20.8-30,32.9-46.4,35.2C215.8,388.7,168.6,311.3,168.5,311.3z"/>
			</g>
			<path class="st16" d="M424.6,387.3c67.8-93.3-125.8-236.4-125.8-236.4s159.2,163,108.9,229.4s-212.3-81.8-212.3-81.8
				S356.8,480.7,424.6,387.3z"/>
			<path class="st16" d="M168.5,302.3c-0.1,0.1,36.5,93.1,101.6,94.6c33.1,0.8,70.5-22.1,83.1-58.4c18.8-53.6-28.6-99.7-41.5-107.7
				c-12.4-7.7-33.8-6.5-44.9,5.7c-11.1,12.3-8.7,32.4-1.6,44.9c13,22.9,40.3,17.9,47.6,38.8c4.4,12.8-2.1,25.6-4.5,30.4
				c-10.1,19.9-32.9,29.9-49.5,30.7C208.3,383.7,168.6,302.2,168.5,302.3z"/>
		</g>
	</g>
</g>
</svg>
