<?xml version="1.0" encoding="utf-8"?>
<!-- Generator: Adobe Illustrator 23.0.1, SVG Export Plug-In . SVG Version: 6.00 Build 0)  -->
<svg version="1.1" id="Layer_1" xmlns="http://www.w3.org/2000/svg" xmlns:xlink="http://www.w3.org/1999/xlink" x="0px" y="0px"
	 viewBox="0 0 410.6 374.7" style="enable-background:new 0 0 410.6 374.7;" xml:space="preserve">
<style type="text/css">
	.st0{display:none;fill:none;stroke:#000000;stroke-width:6;stroke-miterlimit:10;}
	.st1{display:none;}
	.st2{display:inline;}
	.st3{display:inline;fill:none;stroke:#000000;stroke-width:6;stroke-miterlimit:10;}
	.st4{display:none;fill:#FFFFFF;stroke:#000000;stroke-width:4;stroke-miterlimit:10;}
	.st5{display:inline;stroke:#000000;stroke-width:0.2665;stroke-miterlimit:10;}
	.st6{display:none;fill:none;stroke:#000000;stroke-width:2.4106;stroke-miterlimit:10;}
	.st7{display:inline;fill:none;stroke:#000000;stroke-width:1.466;stroke-miterlimit:10;}
	.st8{display:inline;fill:none;stroke:#000000;stroke-width:1.5019;stroke-miterlimit:10;}
	.st9{display:none;fill:none;stroke:#FFFFFF;stroke-width:4;stroke-miterlimit:10;}
	.st10{display:none;fill:none;stroke:#FFFFFF;stroke-width:3.804;stroke-miterlimit:10;}
	.st11{display:inline;fill:none;stroke:#000000;stroke-width:2.4106;stroke-miterlimit:10;}
	.st12{display:inline;fill:none;stroke:#FFFFFF;stroke-width:4;stroke-miterlimit:10;}
	.st13{display:inline;fill:none;stroke:#FFFFFF;stroke-width:3.804;stroke-miterlimit:10;}
	.st14{fill:#993333;}
	.st15{display:none;fill:#993333;}
</style>
<g>
	<g>
		<g>
			<circle class="st0" cx="207" cy="225.9" r="241.4"/>
			<circle class="st0" cx="207" cy="225.9" r="241.4"/>
			<g class="st1">
				<path class="st2" d="M394.1,370.2c87.9-67.5-51.4-252-51.4-252s81.3,120.3,16.9,167.7c-64.3,47.5-152.3-60-152.3-60
					S306.2,437.7,394.1,370.2z"/>
				<circle class="st3" cx="207" cy="225.9" r="241.4"/>
				<path class="st2" d="M262.7,219.8c5.8,13.1,15.9,31.6,21.4,44.7c3,7.3,0,15.6-7,19.3c-21.7,11.3-70.5,30.3-94.2-11.1
					c-0.2-0.3-0.4-0.7-0.5-1c-12.4-26.2-36.1-35.2-61.2-36.2c-16-0.6-20.4-22.3-5.9-29C171.3,180.5,238.3,164.5,262.7,219.8z"/>
				<circle class="st3" cx="207" cy="225.9" r="241.4"/>
			</g>
			<g class="st1">
				<path class="st2" d="M394.1,370.2c87.9-67.5-51.4-252-51.4-252s81.3,120.3,16.9,167.7c-64.3,47.5-152.3-60-152.3-60
					S306.2,437.7,394.1,370.2z"/>
				<circle class="st3" cx="207" cy="225.9" r="241.4"/>
				<path class="st2" d="M178.1,184.4c19.4-6.4,50.5-20.3,60-19.3c0,0,41.9,79-15.8,104.2c-75.5,26.4-30.5,150.8-30.5,150.8
					S72.8,218.9,178.1,184.4z"/>
				<circle class="st3" cx="207" cy="225.9" r="241.4"/>
			</g>
			<g class="st1">
				<path class="st2" d="M394.1,370.2c87.9-67.5-51.4-252-51.4-252s81.3,120.3,16.9,167.7c-64.3,47.5-152.3-60-152.3-60
					S306.2,437.7,394.1,370.2z"/>
				<circle class="st3" cx="207" cy="225.9" r="241.4"/>
				<path class="st2" d="M140.7,276c17-11.4,43.1-33.3,52.5-34.9c0,0,61.8,64.6,13.1,104.6C140.8,391.6,218,499.1,218,499.1
					S48.8,337.8,140.7,276z"/>
				<circle class="st3" cx="207" cy="225.9" r="241.4"/>
			</g>
			<circle class="st4" cx="374.7" cy="335.5" r="17.2"/>
			<circle class="st0" cx="207" cy="225.9" r="241.4"/>
			<circle class="st0" cx="207" cy="225.9" r="241.4"/>
			<g class="st1">
				<circle class="st3" cx="207" cy="225.9" r="241.4"/>
				<circle class="st3" cx="207" cy="225.9" r="241.4"/>
				<path class="st2" d="M165,231.4c0,0,9.2-81,56.7-92.1c59.7-4,45.1,30.5,55,60.2C278.8,205.9,202.6,81.2,165,231.4z"/>
				<path class="st2" d="M250.9,163.5c0,0,35.8,50.5,14.7,80.8c-31.7,32.5-41,5.7-61.6-6.2C199.5,235.5,305.8,267.4,250.9,163.5z"/>
			</g>
			<g class="st1">
				<path class="st2" d="M170,304.4c0,0-29.8-75.9,6.8-108c50.8-31.6,54.2,5.7,76.8,27.4C258.6,228.6,132.8,154.1,170,304.4z"/>
			</g>
			<g class="st1">
				<path class="st2" d="M126.9,245.1c0,0,59.8-55.5,103-33c47.9,35.8,14.4,52.5,2.5,81.5C229.9,299.9,253.3,155.6,126.9,245.1z"/>
			</g>
			<g class="st1">
				
					<rect x="195.2" y="187.6" transform="matrix(0.7931 -0.609 0.609 0.7931 -72.2072 174.6165)" class="st2" width="51.5" height="12"/>
				
					<rect x="203.9" y="196.3" transform="matrix(0.7931 -0.609 0.609 0.7931 -74.1057 186.4367)" class="st2" width="67" height="12"/>
				
					<rect x="217.6" y="218.4" transform="matrix(0.7931 -0.609 0.609 0.7931 -87.2839 191.8513)" class="st2" width="42.3" height="12"/>
			</g>
			<g class="st1">
				<path class="st5" d="M236.1,269.3l-5.3-3.1l-10.2-17.1l15.2,8.8l1.4,2.4C237.2,263.4,236.9,266.4,236.1,269.3z"/>
				<path class="st5" d="M235.8,257.9l-15.2-8.8l-3.3-5.5c1.4-4.8,1.8-9.8,1.3-14.6L235.8,257.9z"/>
				<path class="st5" d="M230.8,266.2l-18.3-10.6c-0.1-0.5-0.2-1-0.3-1.5c0.6-0.9,1.2-1.8,1.8-2.8c0.9-1.5,1.7-3.1,2.3-4.7l4.3,2.5
					L230.8,266.2z"/>
				<path class="st5" d="M199.9,289.6L166,270.1c0-0.1,0-0.1-0.1-0.2c3,0,6-0.4,9-1.1c3.1,0.7,6.3,0.9,9.4,0.7l22.2,12.8
					C204.7,285.1,202.4,287.5,199.9,289.6z"/>
				<path class="st5" d="M217.3,243.6l-11.5-19.3c4.2,0.6,8.4,1.9,12.4,4l0.4,0.7C219.1,233.9,218.7,238.8,217.3,243.6z"/>
				<path class="st5" d="M212.2,254.1c-1-4.7-2.9-9.2-5.7-13.1l9.8,5.6c-0.6,1.6-1.4,3.2-2.3,4.7
					C213.4,252.3,212.8,253.2,212.2,254.1z"/>
				<path class="st5" d="M211.5,255.1l-12.3-7.1c1.4-3.1,2.3-6.4,2.7-9.6l4.6,2.6c2.8,4,4.7,8.4,5.7,13.1
					C211.9,254.5,211.7,254.8,211.5,255.1z"/>
				<path class="st5" d="M200.9,224c-0.7-2.5-1.6-4.9-2.8-7.2l1.6-2.7l4.7,7.8l-1.3,2.2C202.3,224,201.6,224,200.9,224z"/>
				<path class="st5" d="M205.7,224.3l-1.4-2.4l4.9-8.5l8.9,14.9C214.2,226.2,210,224.9,205.7,224.3z"/>
				<path class="st5" d="M201.5,226.7c-0.2-0.9-0.4-1.8-0.6-2.7c0.7,0,1.4,0,2.1,0.1L201.5,226.7z"/>
				<polygon class="st5" points="204.3,221.9 199.6,214.1 204.5,205.6 209.2,213.4 				"/>
				<path class="st5" d="M199.6,214.1l-9.8-16.4c3.7,0.8,7.3,2.1,10.8,4.1c0.9,0.5,1.8,1.1,2.7,1.7l0,0l1.2,2.1L199.6,214.1z"/>
				<path class="st5" d="M199.2,248l-7.5-4.3l4.8-8.4l5.3,3.1C201.5,241.6,200.6,244.9,199.2,248z"/>
				<rect x="185.8" y="233.5" transform="matrix(0.5 -0.866 0.866 0.5 -110.3445 283.8357)" class="st5" width="9.7" height="7.9"/>
				<path class="st5" d="M194.8,230.3c-1.2-0.7-2.3-1.3-3.5-1.8l2.2-3.7c2.4-0.5,4.9-0.8,7.5-0.8c0.2,0.9,0.4,1.8,0.6,2.7l-3.4,5.8
					C197.1,231.7,196,231,194.8,230.3z"/>
				<path class="st5" d="M193.4,224.8l4.6-8c1.2,2.3,2.1,4.7,2.8,7.2C198.4,224,195.9,224.3,193.4,224.8z"/>
				<path class="st5" d="M184.8,239.7l-6.9-4l3.5-6c0.9-0.6,1.8-1.1,2.7-1.6l5.5,3.2L184.8,239.7z"/>
				<path class="st5" d="M171.1,231.8l-6.1-3.5l0.6-1c3-1,6-1.5,9.1-1.7L171.1,231.8z"/>
				<path class="st5" d="M178,235.8l-2.4-1.4c1.8-1.8,3.8-3.3,5.9-4.7L178,235.8z"/>
				<path class="st5" d="M165,258.2l-0.2-0.1c0.3-5.5,1.9-10.9,4.8-16c1.7-2.9,3.7-5.5,6-7.8l2.4,1.4L165,258.2z"/>
				<path class="st5" d="M164.8,258.1l-6.7-3.8l13-22.5l4.5,2.6c-2.3,2.3-4.3,4.8-6,7.8C166.6,247.2,165.1,252.7,164.8,258.1z"/>
				<path class="st5" d="M162.1,263.2c-2.3-1.5-4.3-3.3-6.1-5.3l2.1-3.7l6.7,3.8c0,0.2,0,0.4,0,0.5L162.1,263.2z"/>
				<path class="st5" d="M160.1,266.6l-6.9-4l2.7-4.7c1.8,1.9,3.9,3.7,6.1,5.3L160.1,266.6z"/>
				<path class="st5" d="M165.7,269.9l-5.6-3.2l2-3.4c0.7,0.5,1.5,1,2.3,1.4c0.2,0.1,0.4,0.2,0.6,0.3c0.2,1.6,0.5,3.3,1,4.9
					C165.9,269.9,165.8,269.9,165.7,269.9z"/>
				<path class="st5" d="M165,265c-0.3-2.1-0.4-4.2-0.3-6.3l0.2-0.4L180,267c-1.7,0.7-3.4,1.3-5.1,1.7
					C171.6,268,168.2,266.8,165,265z"/>
				<path class="st5" d="M166,269.9c-0.4-1.6-0.8-3.2-1-4.9c3.2,1.8,6.5,3,9.9,3.7C172,269.5,169,269.9,166,269.9z"/>
				<path class="st5" d="M156,258c-2.3-2.5-4.2-5.3-5.8-8.2l7.9,4.5L156,258z"/>
				<path class="st5" d="M153.3,262.7l-12.3-7.1c0.6-3.2,1.5-6.4,3-9.5l6.3,3.6c1.5,3,3.4,5.7,5.8,8.2L153.3,262.7z"/>
				<path class="st5" d="M175.6,234.4l-4.5-2.6l3.6-6.3c1.7-0.1,3.4-0.1,5.1,0.1l3,1.8l-1.4,2.4C179.4,231,177.4,232.6,175.6,234.4z
					"/>
			</g>
			<g class="st1">
				<polygon class="st2" points="274.7,250 260.5,240.6 249,258 228.9,244.8 216.6,263.5 198.8,251.8 222.6,215.7 232.8,200.1 
					285,234.4 				"/>
			</g>
			<circle class="st1" cx="207" cy="225.9" r="54.5"/>
			
				<ellipse transform="matrix(0.4149 -0.9099 0.9099 0.4149 -88.5115 236.2315)" class="st6" cx="139.4" cy="186.9" rx="184.9" ry="166.6"/>
			<circle class="st1" cx="321.8" cy="292.2" r="15.4"/>
			<g class="st1">
				<circle class="st3" cx="207" cy="225.9" r="241.4"/>
				<circle class="st3" cx="207" cy="225.9" r="241.4"/>
				<circle class="st3" cx="207" cy="225.9" r="241.4"/>
				<circle class="st3" cx="207" cy="225.9" r="241.4"/>
				<circle class="st2" cx="207" cy="225.9" r="54.5"/>
				
					<ellipse transform="matrix(0.526 -0.8505 0.8505 0.526 -94.2122 298.8434)" class="st7" cx="221" cy="233.9" rx="77.2" ry="147.6"/>
				<circle class="st2" cx="321.8" cy="292.2" r="15.4"/>
			</g>
			<g class="st1">
				<circle class="st3" cx="207" cy="225.9" r="241.4"/>
				<circle class="st3" cx="207" cy="225.9" r="241.4"/>
				<circle class="st3" cx="207" cy="225.9" r="241.4"/>
				<circle class="st3" cx="207" cy="225.9" r="241.4"/>
				<circle class="st2" cx="207" cy="225.9" r="54.5"/>
				<ellipse transform="matrix(0.5 -0.866 0.866 0.5 -92.1955 276.6131)" class="st8" cx="193.5" cy="218.2" rx="147.6" ry="81"/>
				<circle class="st2" cx="321.8" cy="292.2" r="15.4"/>
			</g>
			<ellipse transform="matrix(0.5 -0.866 0.866 0.5 -92.2207 317.1921)" class="st9" cx="228.6" cy="238.5" rx="92.4" ry="32.7"/>
			<ellipse transform="matrix(0.5 -0.866 0.866 0.5 -119.7836 284.3965)" class="st10" cx="186.4" cy="245.9" rx="32.7" ry="83.6"/>
			<g class="st1">
				<circle class="st3" cx="207" cy="225.9" r="241.4"/>
				<circle class="st3" cx="207" cy="225.9" r="241.4"/>
				<circle class="st3" cx="207" cy="225.9" r="241.4"/>
				<circle class="st3" cx="207" cy="225.9" r="241.4"/>
				<circle class="st2" cx="207" cy="225.9" r="54.5"/>
				
					<ellipse transform="matrix(0.4149 -0.9099 0.9099 0.4149 -88.5115 236.2315)" class="st11" cx="139.4" cy="186.9" rx="184.9" ry="166.6"/>
				<circle class="st2" cx="321.8" cy="292.2" r="15.4"/>
				<ellipse transform="matrix(0.5 -0.866 0.866 0.5 -92.2207 317.1921)" class="st12" cx="228.6" cy="238.5" rx="92.4" ry="32.7"/>
				
					<ellipse transform="matrix(0.5 -0.866 0.866 0.5 -119.7836 284.3965)" class="st13" cx="186.4" cy="245.9" rx="32.7" ry="83.6"/>
			</g>
			<g>
				<path class="st14" d="M10,336.6c60.1,98.5,266.6-25.1,266.6-25.1S65,395.7,23,323.7s157.2-164.5,157.2-164.5S-50,238.1,10,336.6
					z"/>
				<path class="st14" d="M198.7,135.1c0-0.1-99.8-5.6-128.3,53c-14.5,29.8-9.2,73.3,18.4,99.9c41,39.4,102.6,15.5,115.3,7.1
					c12.2-8.1,20-28,13.5-43.2c-6.6-15.2-25.9-21.4-40.2-20.2c-26.2,2.3-33.1,29.2-55.1,27.1c-13.5-1.3-22.4-12.6-25.7-16.8
					c-13.9-17.5-13.5-42.4-7.3-57.8C108.2,137.4,198.8,135.2,198.7,135.1z"/>
			</g>
			<path class="st15" d="M4.9,318.9c46.9,105.4,267.6,9.3,267.6,9.3S51.8,384.6,19.4,307.9s177-143,177-143S-42.1,213.5,4.9,318.9z"
				/>
			<path class="st15" d="M206.6,139.6c0-0.1-98.8-14.9-132.7,40.7c-17.2,28.3-16.1,72.1,9,101.2c37.1,43.1,100.7,25.1,114.1,17.9
				c12.9-6.9,22.6-26,17.5-41.7c-5.1-15.8-23.7-23.7-38.1-23.8c-26.3-0.2-35.7,26-57.4,21.8c-13.3-2.6-21.1-14.6-24.1-19.1
				c-12.2-18.7-9.5-43.5-1.8-58.2C116.2,133.4,206.6,139.7,206.6,139.6z"/>
		</g>
	</g>
	<g>
		<g>
			<circle class="st0" cx="207" cy="225.9" r="241.4"/>
			<circle class="st0" cx="207" cy="225.9" r="241.4"/>
			<g class="st1">
				<path class="st2" d="M-11.5,315.8c14.5,109.9,244,81.5,244,81.5S87.7,407.6,78.7,328s128.2-101.9,128.2-101.9
					S-26,205.9-11.5,315.8z"/>
				<circle class="st3" cx="207" cy="225.9" r="241.4"/>
				<path class="st2" d="M184.5,277.2c-14.3-1.5-35.3-2-49.4-3.9c-7.8-1-13.5-7.8-13.2-15.7c1.1-24.4,9-76.2,56.7-76
					c0.4,0,0.8,0,1.2,0.1c28.9,2.3,48.6-13.7,61.9-34.9c8.5-13.6,29.5-6.6,28.1,9.4C264.2,217.7,244.5,283.7,184.5,277.2z"/>
				<circle class="st3" cx="207" cy="225.9" r="241.4"/>
			</g>
			<g class="st1">
				<path class="st2" d="M-11.5,315.8c14.5,109.9,244,81.5,244,81.5S87.7,407.6,78.7,328s128.2-101.9,128.2-101.9
					S-26,205.9-11.5,315.8z"/>
				<circle class="st3" cx="207" cy="225.9" r="241.4"/>
				<path class="st2" d="M257.3,221.6c-4.2,20-7.7,53.9-13.3,61.6c0,0-89.4-3.2-82.3-65.8c14.9-78.6-115.3-101.8-115.3-101.8
					S280.1,113.2,257.3,221.6z"/>
				<circle class="st3" cx="207" cy="225.9" r="241.4"/>
			</g>
			<g class="st1">
				<path class="st2" d="M-11.5,315.8c14.5,109.9,244,81.5,244,81.5S87.7,407.6,78.7,328s128.2-101.9,128.2-101.9
					S-26,205.9-11.5,315.8z"/>
				<circle class="st3" cx="207" cy="225.9" r="241.4"/>
				<path class="st2" d="M196.8,143.5c1.4,20.4,7.3,53.9,3.9,62.9c0,0-86.9,21.2-97.1-41c-7-79.7-138.7-66.7-138.7-66.7
					S189.2,32.9,196.8,143.5z"/>
				<circle class="st3" cx="207" cy="225.9" r="241.4"/>
			</g>
			<circle class="st4" cx="28.2" cy="316.4" r="17.2"/>
			<circle class="st0" cx="207" cy="225.9" r="241.4"/>
			<circle class="st0" cx="207" cy="225.9" r="241.4"/>
			<g class="st1">
				<circle class="st3" cx="207" cy="225.9" r="241.4"/>
				<circle class="st3" cx="207" cy="225.9" r="241.4"/>
				<path class="st2" d="M223.3,186.8c0,0,65.5,48.5,51.5,95.1c-26.3,53.7-49,23.9-79.7,17.5C188.4,298.1,334.5,294.5,223.3,186.8z"
					/>
				<path class="st2" d="M239.1,295.1c0,0-61.6,5.8-77.3-27.7c-12.3-43.7,15.6-38.3,36.2-50.3C202.4,214.6,121.7,290.7,239.1,295.1z
					"/>
			</g>
			<g class="st1">
				<path class="st2" d="M157.5,154.6c0,0,80.6,12.1,90.1,59.9c1.9,59.8-32.1,44-62.1,52.8C178.9,269.3,306.3,197.5,157.5,154.6z"/>
			</g>
			<g class="st1">
				<path class="st2" d="M230.4,147c0,0,18.1,79.5-22.9,105.7c-55,23.6-52.7-13.8-71.8-38.6C131.5,208.7,244.7,301.1,230.4,147z"/>
			</g>
			<g class="st1">
				
					<rect x="221.9" y="228.4" transform="matrix(0.9914 -0.1309 0.1309 0.9914 -31.3074 32.0189)" class="st2" width="12" height="51.5"/>
				
					<rect x="206.2" y="230.6" transform="matrix(0.9914 -0.1309 0.1309 0.9914 -32.7439 30.0501)" class="st2" width="12" height="67"/>
				
					<rect x="186.4" y="233.1" transform="matrix(0.9914 -0.1309 0.1309 0.9914 -31.6252 27.3732)" class="st2" width="12" height="42.3"/>
			</g>
			<g class="st1">
				<path class="st5" d="M154.9,229.4l5.3-3.1l19.9-0.3l-15.2,8.8h-2.8C159.4,233.4,157,231.5,154.9,229.4z"/>
				<path class="st5" d="M164.8,234.8L180,226l6.4-0.1c3.4,3.7,7.5,6.5,12,8.4L164.8,234.8z"/>
				<path class="st5" d="M160.2,226.3l18.3-10.6c0.5,0.2,1,0.3,1.5,0.5c0.5,1,1,2,1.5,2.9c0.9,1.5,1.9,3,2.9,4.3l-4.3,2.5
					L160.2,226.3z"/>
				<path class="st5" d="M155.4,187.9l33.8-19.5c0.1,0,0.1,0,0.2,0.1c-1.5,2.6-2.7,5.4-3.5,8.3c-2.1,2.4-3.9,5-5.4,7.8l-22.2,12.8
					C156.9,194.3,155.9,191.1,155.4,187.9z"/>
				<path class="st5" d="M186.5,225.9l22.5-0.3c-2.6,3.4-5.8,6.4-9.7,8.7h-0.8C194,232.4,189.9,229.6,186.5,225.9z"/>
				<path class="st5" d="M180,216.2c4.6,1.5,9.4,2,14.2,1.6l-9.8,5.6c-1.1-1.4-2.1-2.8-2.9-4.3C180.9,218.2,180.4,217.2,180,216.2z"
					/>
				<path class="st5" d="M179.5,215.2l12.3-7.1c2,2.8,4.4,5.1,7,7.1l-4.6,2.6c-4.8,0.4-9.7-0.2-14.2-1.6
					C179.8,215.9,179.6,215.5,179.5,215.2z"/>
				<path class="st5" d="M211.7,221.6c2.5,0.7,5.1,1,7.7,1.2l1.6,2.7l-9.1,0.1l-1.3-2.2C211,222.8,211.3,222.2,211.7,221.6z"/>
				<path class="st5" d="M209,225.6h2.8l4.9,8.5l-17.4,0.3C203.2,232,206.4,229,209,225.6z"/>
				<path class="st5" d="M209.1,220.8c0.9,0.3,1.7,0.6,2.6,0.8c-0.4,0.6-0.7,1.2-1.1,1.8L209.1,220.8z"/>
				<polygon class="st5" points="211.8,225.6 220.9,225.4 225.8,233.9 216.7,234.1 				"/>
				<path class="st5" d="M220.9,225.4l19.1-0.3c-2.5,2.8-5.5,5.3-9,7.3c-0.9,0.5-1.9,1-2.8,1.5l0,0h-2.4L220.9,225.4z"/>
				<path class="st5" d="M191.8,208.1l7.5-4.3l4.8,8.4l-5.3,3.1C196.2,213.2,193.8,210.8,191.8,208.1z"/>
				<rect x="201.1" y="201.1" transform="matrix(0.866 -0.5 0.5 0.866 -75.532 130.1031)" class="st5" width="7.9" height="9.7"/>
				<path class="st5" d="M209.2,213.1c1.2-0.7,2.3-1.4,3.3-2.2l2.2,3.7c-0.8,2.4-1.8,4.7-3,6.8c-0.9-0.2-1.8-0.5-2.6-0.8l-3.4-5.8
					C206.9,214.4,208.1,213.8,209.2,213.1z"/>
				<path class="st5" d="M214.7,214.7l4.6,8c-2.6-0.1-5.2-0.5-7.7-1.2C212.9,219.4,213.9,217.1,214.7,214.7z"/>
				<path class="st5" d="M206.1,199.8l6.9-4l3.5,6c0,1,0,2.1,0,3.1l-5.5,3.2L206.1,199.8z"/>
				<path class="st5" d="M219.9,191.9l6.1-3.5l0.6,1c-0.7,3-1.7,6-3.1,8.8L219.9,191.9z"/>
				<path class="st5" d="M213,195.8l2.4-1.4c0.6,2.5,1,4.9,1.1,7.4L213,195.8z"/>
				<path class="st5" d="M200,173.3l0.2-0.1c4.6,3,8.5,7.1,11.4,12.1c1.7,2.9,2.9,6,3.7,9.1l-2.4,1.4L200,173.3z"/>
				<path class="st5" d="M200.2,173.2l6.7-3.8l13,22.5l-4.5,2.6c-0.8-3.1-2-6.2-3.7-9.1C208.7,180.3,204.8,176.2,200.2,173.2z"/>
				<path class="st5" d="M197.1,168.4c2.5-1.2,5-2.1,7.6-2.7l2.1,3.7l-6.7,3.8c-0.1-0.1-0.3-0.2-0.4-0.3L197.1,168.4z"/>
				<path class="st5" d="M195.2,164.9l6.9-4l2.7,4.7c-2.6,0.6-5.1,1.5-7.6,2.7L195.2,164.9z"/>
				<path class="st5" d="M189.6,168.2l5.6-3.2l2,3.4c-0.8,0.4-1.6,0.8-2.4,1.3c-0.2,0.1-0.4,0.2-0.6,0.4c-1.5-0.6-3.1-1.2-4.7-1.6
					C189.5,168.3,189.5,168.2,189.6,168.2z"/>
				<path class="st5" d="M194.1,170c1.9,0.8,3.8,1.8,5.6,2.9l0.2,0.4l-15.1,8.7c0.2-1.8,0.6-3.6,1.1-5.3
					C188.3,174.2,191,171.9,194.1,170z"/>
				<path class="st5" d="M189.4,168.4c1.6,0.4,3.2,0.9,4.7,1.6c-3.1,1.9-5.9,4.2-8.2,6.7C186.8,173.8,187.9,171,189.4,168.4z"/>
				<path class="st5" d="M204.7,165.7c3.3-0.8,6.7-1,10-0.9l-7.9,4.5L204.7,165.7z"/>
				<path class="st5" d="M202,161l12.3-7.1c2.5,2.1,4.8,4.5,6.7,7.3l-6.3,3.6c-3.3-0.2-6.7,0.1-10,0.9L202,161z"/>
				<path class="st5" d="M215.4,194.5l4.5-2.6l3.6,6.3c-0.8,1.5-1.6,3-2.6,4.3l-3,1.8l-1.4-2.4C216.4,199.4,216,196.9,215.4,194.5z"
					/>
			</g>
			<g class="st1">
				<polygon class="st2" points="152.3,272.5 167.5,264.8 158.2,246.2 179.7,235.4 169.6,215.4 188.6,205.9 208,244.5 216.4,261.1 
					160.7,289.2 				"/>
			</g>
			<circle class="st1" cx="207" cy="225.9" r="54.5"/>
			
				<ellipse transform="matrix(0.8143 -0.5805 0.5805 0.8143 -57.5481 194.0756)" class="st6" cx="274.5" cy="187" rx="166.6" ry="184.9"/>
			<circle class="st1" cx="92.2" cy="292.2" r="15.4"/>
			<g class="st1">
				<circle class="st3" cx="207" cy="225.9" r="241.4"/>
				<circle class="st3" cx="207" cy="225.9" r="241.4"/>
				<circle class="st3" cx="207" cy="225.9" r="241.4"/>
				<circle class="st3" cx="207" cy="225.9" r="241.4"/>
				<circle class="st2" cx="207" cy="225.9" r="54.5"/>
				
					<ellipse transform="matrix(0.8808 -0.4735 0.4735 0.8808 -87.8104 119.2836)" class="st7" cx="193" cy="234" rx="147.6" ry="77.2"/>
				<circle class="st2" cx="92.2" cy="292.2" r="15.4"/>
			</g>
			<g class="st1">
				<circle class="st3" cx="207" cy="225.9" r="241.4"/>
				<circle class="st3" cx="207" cy="225.9" r="241.4"/>
				<circle class="st3" cx="207" cy="225.9" r="241.4"/>
				<circle class="st3" cx="207" cy="225.9" r="241.4"/>
				<circle class="st2" cx="207" cy="225.9" r="54.5"/>
				<ellipse transform="matrix(0.866 -0.5 0.5 0.866 -79.5221 139.4545)" class="st8" cx="220.5" cy="218.1" rx="81" ry="147.6"/>
				<circle class="st2" cx="92.2" cy="292.2" r="15.4"/>
			</g>
			<ellipse transform="matrix(0.866 -0.5 0.5 0.866 -94.3663 124.6258)" class="st9" cx="185.4" cy="238.4" rx="32.7" ry="92.4"/>
			<ellipse transform="matrix(0.866 -0.5 0.5 0.866 -72.2827 126.4802)" class="st10" cx="199.9" cy="198.1" rx="83.6" ry="32.7"/>
			<g class="st1">
				<circle class="st3" cx="207" cy="225.9" r="241.4"/>
				<circle class="st3" cx="207" cy="225.9" r="241.4"/>
				<circle class="st3" cx="207" cy="225.9" r="241.4"/>
				<circle class="st3" cx="207" cy="225.9" r="241.4"/>
				<circle class="st2" cx="207" cy="225.9" r="54.5"/>
				
					<ellipse transform="matrix(0.8143 -0.5805 0.5805 0.8143 -57.5481 194.0756)" class="st11" cx="274.5" cy="187" rx="166.6" ry="184.9"/>
				<circle class="st2" cx="92.2" cy="292.2" r="15.4"/>
				<ellipse transform="matrix(0.866 -0.5 0.5 0.866 -94.3663 124.6258)" class="st12" cx="185.4" cy="238.4" rx="32.7" ry="92.4"/>
				<ellipse transform="matrix(0.866 -0.5 0.5 0.866 -72.2827 126.4802)" class="st13" cx="199.9" cy="198.1" rx="83.6" ry="32.7"/>
			</g>
			<g>
				<path class="st14" d="M209.6,0C94.3,2.8,98.1,243.4,98.1,243.4S131,18,214.3,17.6S278.2,236,278.2,236S325-2.8,209.6,0z"/>
				<path class="st14" d="M289.8,264.2c0.1,0,54.7-83.6,18.3-137.6c-18.5-27.4-58.8-44.7-95.7-34c-54.6,15.8-64.7,81.1-63.8,96.3
					c0.9,14.6,14.3,31.3,30.7,33.3c16.5,1.9,31.5-11.7,37.5-24.7c11.2-23.9-8.7-43.2,4.1-61.3c7.9-11,22.1-13.1,27.4-13.9
					c22.1-3.3,43.4,9.5,53.7,22.6C333.1,184.5,289.7,264.1,289.8,264.2z"/>
			</g>
			<path class="st15" d="M227.5,4.3C112.8-7.8,85.7,231.4,85.7,231.4s61.5-219.3,144.2-209s35.4,224.7,35.4,224.7
				S342.3,16.4,227.5,4.3z"/>
			<path class="st15" d="M281.9,268.7c0.1,0,62.3-78.1,31.1-135.3c-15.9-29.1-54.4-50-92.1-42.8c-55.9,10.6-72.1,74.7-72.5,89.8
				c-0.5,14.6,11.2,32.5,27.4,36s32.4-8.7,39.7-21.1c13.3-22.7-4.6-43.9,9.8-60.6c8.9-10.3,23.2-11,28.6-11.3
				c22.3-1.2,42.4,13.5,51.3,27.5C332.5,193.5,281.8,268.6,281.9,268.7z"/>
		</g>
	</g>
	<g>
		<g>
			<circle class="st0" cx="207" cy="225.9" r="241.4"/>
			<circle class="st0" cx="207" cy="225.9" r="241.4"/>
			<g class="st1">
				<path class="st2" d="M238.4-8.3C136-50.7,45.8,162.2,45.8,162.2s63.5-130.6,136.9-98.5s24.2,162,24.2,162S340.8,34.1,238.4-8.3z
					"/>
				<circle class="st3" cx="207" cy="225.9" r="241.4"/>
				<path class="st2" d="M173.8,180.7c8.5-11.6,19.4-29.6,28.1-40.9c4.8-6.2,13.6-7.8,20.2-3.6c20.6,13.1,61.5,45.9,37.5,87.1
					c-0.2,0.3-0.4,0.7-0.6,1c-16.5,23.9-12.4,48.9-0.7,71.1c7.5,14.2-9.1,28.8-22.2,19.6C185.5,279.6,138.2,229.5,173.8,180.7z"/>
				<circle class="st3" cx="207" cy="225.9" r="241.4"/>
			</g>
			<g class="st1">
				<path class="st2" d="M238.4-8.3C136-50.7,45.8,162.2,45.8,162.2s63.5-130.6,136.9-98.5s24.2,162,24.2,162S340.8,34.1,238.4-8.3z
					"/>
				<circle class="st3" cx="207" cy="225.9" r="241.4"/>
				<path class="st2" d="M185.5,271.6c-15.2-13.7-42.8-33.6-46.7-42.4c0,0,47.4-75.8,98.1-38.4c60.6,52.2,145.9-49,145.9-49
					S268.1,345.6,185.5,271.6z"/>
				<circle class="st3" cx="207" cy="225.9" r="241.4"/>
			</g>
			<g class="st1">
				<path class="st2" d="M238.4-8.3C136-50.7,45.8,162.2,45.8,162.2s63.5-130.6,136.9-98.5s24.2,162,24.2,162S340.8,34.1,238.4-8.3z
					"/>
				<circle class="st3" cx="207" cy="225.9" r="241.4"/>
				<path class="st2" d="M283.5,258.2c-18.4-9-50.3-20.7-56.5-28.1c0,0,25-85.8,84-63.6c72.5,33.8,127.1-86.8,127.1-86.8
					S383,307,283.5,258.2z"/>
				<circle class="st3" cx="207" cy="225.9" r="241.4"/>
			</g>
			<circle class="st4" cx="218.1" cy="25.9" r="17.2"/>
			<circle class="st0" cx="207" cy="225.9" r="241.4"/>
			<circle class="st0" cx="207" cy="225.9" r="241.4"/>
			<g class="st1">
				<circle class="st3" cx="207" cy="225.9" r="241.4"/>
				<circle class="st3" cx="207" cy="225.9" r="241.4"/>
				<path class="st2" d="M232.7,259.5c0,0-74.8,32.5-108.1-3c-33.3-49.7,3.8-54.3,24.7-77.7C153.8,173.7,83.9,302.1,232.7,259.5z"/>
				<path class="st2" d="M131,219.1c0,0,25.8-56.3,62.6-53.1c44,11.2,25.4,32.7,25.5,56.4C219.1,227.6,193.6,119.6,131,219.1z"/>
			</g>
			<g class="st1">
				<path class="st2" d="M293.5,218.7c0,0-50.8,63.8-96.9,48.1c-52.7-28.2-22.1-49.8-14.7-80.2C183.5,179.9,181.9,326,293.5,218.7z"
					/>
			</g>
			<g class="st1">
				<path class="st2" d="M263.7,285.6c0,0-77.9-24-80.1-72.7c7-59.4,38.3-38.7,69.3-42.9C259.7,169.1,123,221,263.7,285.6z"/>
			</g>
			<g class="st1">
				
					<rect x="166.1" y="204.2" transform="matrix(0.3824 -0.924 0.924 0.3824 -106.1381 301.0204)" class="st2" width="12" height="51.5"/>
				
					<rect x="165.4" y="177.8" transform="matrix(0.3824 -0.924 0.924 0.3824 -89.3931 288.8376)" class="st2" width="12" height="67"/>
				
					<rect x="183.8" y="177.9" transform="matrix(0.3824 -0.924 0.924 0.3824 -66.748 298.2744)" class="st2" width="12" height="42.3"/>
			</g>
			<g class="st1">
				<path class="st5" d="M230,179v6.2l-9.7,17.4v-17.7l1.4-2.5C224.3,181,227.1,179.8,230,179z"/>
				<path class="st5" d="M220.4,184.9v17.6l-3.1,5.6c-4.9,1.1-9.4,3.3-13.3,6.2L220.4,184.9z"/>
				<path class="st5" d="M230,185.2v21.1c-0.4,0.3-0.8,0.7-1.2,1c-1.1-0.1-2.2-0.1-3.3-0.1c-1.8,0-3.5,0.1-5.2,0.4v-5L230,185.2z"/>
				<path class="st5" d="M265.7,200.2v39.1c0,0.1-0.1,0.1-0.1,0.2c-1.5-2.6-3.4-5-5.5-7.2c-1-3-2.4-5.9-4.1-8.5v-25.6
					C259.4,198.3,262.7,199.1,265.7,200.2z"/>
				<path class="st5" d="M217.2,208.1l-11,19.6c-1.6-3.9-2.6-8.2-2.7-12.7l0.4-0.7C207.8,211.4,212.3,209.3,217.2,208.1z"/>
				<path class="st5" d="M228.9,207.3c-3.6,3.2-6.5,7.1-8.5,11.5v-11.3c1.7-0.3,3.5-0.4,5.2-0.4
					C226.7,207.2,227.8,207.2,228.9,207.3z"/>
				<path class="st5" d="M230,207.4v14.2c-3.4,0.4-6.7,1.2-9.7,2.5v-5.3c2.1-4.4,5-8.3,8.5-11.5C229.3,207.3,229.7,207.4,230,207.4z
					"/>
				<path class="st5" d="M208.4,232.1c-1.8,1.8-3.4,3.9-4.8,6.1h-3.1l4.4-7.9h2.5C207.7,230.9,208.1,231.5,208.4,232.1z"/>
				<path class="st5" d="M206.3,227.8l-1.4,2.5h-9.8l8.5-15.2C203.7,219.5,204.6,223.8,206.3,227.8z"/>
				<path class="st5" d="M210.4,230.2c-0.7,0.6-1.4,1.2-2,1.9c-0.4-0.6-0.7-1.2-1-1.9H210.4z"/>
				<polygon class="st5" points="204.9,230.2 200.5,238.2 190.6,238.2 195.1,230.2 				"/>
				<path class="st5" d="M200.5,238.2l-9.3,16.7c-1.2-3.6-1.8-7.4-1.8-11.4c0-1.1,0-2.1,0.1-3.2l0,0l1.2-2.1H200.5z"/>
				<path class="st5" d="M230,221.6v8.6h-9.7v-6.1C223.4,222.8,226.7,222,230,221.6z"/>
				<rect x="220.4" y="230.2" class="st5" width="9.7" height="7.9"/>
				<path class="st5" d="M216.9,234.2c0,1.3,0.1,2.7,0.2,4h-4.3c-1.7-1.9-3.2-3.9-4.4-6.1c0.6-0.6,1.3-1.3,2-1.9h6.7
					C217,231.6,216.9,232.9,216.9,234.2z"/>
				<path class="st5" d="M212.8,238.2h-9.2c1.4-2.2,3-4.2,4.8-6.1C209.7,234.3,211.2,236.3,212.8,238.2z"/>
				<path class="st5" d="M230,238.2v7.9h-7c-0.9-0.5-1.8-1-2.7-1.6v-6.4L230,238.2L230,238.2z"/>
				<path class="st5" d="M230,254.1v7.1h-1.2c-2.3-2.1-4.3-4.5-6-7.1H230z"/>
				<path class="st5" d="M230,246.1v2.7c-2.4-0.7-4.8-1.6-7-2.7H230z"/>
				<path class="st5" d="M256,246.1v0.2c-4.9,2.5-10.4,3.8-16.2,3.8c-3.4,0-6.6-0.5-9.7-1.3v-2.7H256z"/>
				<path class="st5" d="M256,246.4v7.7h-26v-5.2c3.1,0.9,6.4,1.3,9.7,1.3C245.6,250.2,251.1,248.8,256,246.4z"/>
				<path class="st5" d="M261.8,246.1c-0.2,2.7-0.7,5.4-1.5,7.9H256v-7.7c0.2-0.1,0.3-0.2,0.5-0.2H261.8z"/>
				<path class="st5" d="M265.7,246.1v7.9h-5.4c0.8-2.5,1.3-5.2,1.5-7.9H265.7z"/>
				<path class="st5" d="M265.7,239.7v6.4h-4c0.1-0.9,0.1-1.8,0.1-2.7c0-0.2,0-0.5,0-0.7c1.3-1,2.6-2.1,3.7-3.3
					C265.6,239.5,265.7,239.6,265.7,239.7z"/>
				<path class="st5" d="M261.8,242.7c-1.7,1.3-3.5,2.4-5.3,3.4H256v-17.5c1.4,1.1,2.8,2.3,4.1,3.6
					C261.2,235.6,261.8,239.1,261.8,242.7z"/>
				<path class="st5" d="M265.6,239.4c-1.2,1.2-2.4,2.3-3.7,3.3c-0.1-3.6-0.7-7.2-1.7-10.5C262.2,234.4,264.1,236.8,265.6,239.4z"/>
				<path class="st5" d="M260.3,254.1c-1,3.3-2.4,6.3-4.2,9.1v-9.1H260.3z"/>
				<path class="st5" d="M265.7,254.1v14.2c-3.1,1.1-6.3,1.9-9.7,2.1v-7.2c1.8-2.8,3.3-5.8,4.2-9.1H265.7z"/>
				<path class="st5" d="M230,248.9v5.2h-7.2c-0.9-1.4-1.7-2.9-2.5-4.4v-3.5h2.7C225.3,247.3,227.6,248.2,230,248.9z"/>
			</g>
			<g class="st1">
				<polygon class="st2" points="194,155.2 193,172.2 213.8,173.4 212.4,197.5 234.8,198.8 233.5,220 190.4,217.5 171.8,216.4 
					175.4,154.1 				"/>
			</g>
			<circle class="st1" cx="207" cy="225.9" r="54.5"/>
			
				<ellipse transform="matrix(0.9954 -9.558836e-02 9.558836e-02 0.9954 -28.1026 21.1751)" class="st6" cx="207" cy="303.9" rx="184.9" ry="166.6"/>
			<circle class="st1" cx="207" cy="93.3" r="15.4"/>
			<g class="st1">
				<circle class="st3" cx="207" cy="225.9" r="241.4"/>
				<circle class="st3" cx="207" cy="225.9" r="241.4"/>
				<circle class="st3" cx="207" cy="225.9" r="241.4"/>
				<circle class="st3" cx="207" cy="225.9" r="241.4"/>
				<circle class="st2" cx="207" cy="225.9" r="54.5"/>
				
					<ellipse transform="matrix(3.033779e-02 -0.9995 0.9995 3.033779e-02 -9.0107 410.3433)" class="st7" cx="207" cy="209.8" rx="147.6" ry="77.2"/>
				<circle class="st2" cx="207" cy="93.3" r="15.4"/>
			</g>
			<g class="st1">
				<circle class="st3" cx="207" cy="225.9" r="241.4"/>
				<circle class="st3" cx="207" cy="225.9" r="241.4"/>
				<circle class="st3" cx="207" cy="225.9" r="241.4"/>
				<circle class="st3" cx="207" cy="225.9" r="241.4"/>
				<circle class="st2" cx="207" cy="225.9" r="54.5"/>
				<ellipse class="st8" cx="207" cy="241.5" rx="147.6" ry="81"/>
				<circle class="st2" cx="207" cy="93.3" r="15.4"/>
			</g>
			<ellipse class="st9" cx="207" cy="200.9" rx="92.4" ry="32.7"/>
			<ellipse class="st10" cx="234.6" cy="233.7" rx="32.7" ry="83.6"/>
			<g class="st1">
				<circle class="st3" cx="207" cy="225.9" r="241.4"/>
				<circle class="st3" cx="207" cy="225.9" r="241.4"/>
				<circle class="st3" cx="207" cy="225.9" r="241.4"/>
				<circle class="st3" cx="207" cy="225.9" r="241.4"/>
				<circle class="st2" cx="207" cy="225.9" r="54.5"/>
				
					<ellipse transform="matrix(0.9954 -9.558836e-02 9.558836e-02 0.9954 -28.1026 21.1751)" class="st11" cx="207" cy="303.9" rx="184.9" ry="166.6"/>
				<circle class="st2" cx="207" cy="93.3" r="15.4"/>
				<ellipse class="st12" cx="207" cy="200.9" rx="92.4" ry="32.7"/>
				<ellipse class="st13" cx="234.6" cy="233.7" rx="32.7" ry="83.6"/>
			</g>
			<g>
				<path class="st14" d="M401.4,341.1c55.3-101.2-155.1-218.3-155.1-218.3S425,264,383.7,336.3s-221-53.9-221-53.9
					S346.1,442.4,401.4,341.1z"/>
				<path class="st14" d="M132.5,278.4c-0.1,0.1,45.1,89.2,110,84.7c33-2.3,68.1-28.6,77.3-65.9c13.6-55.2-37.9-96.6-51.5-103.4
					c-13.1-6.5-34.3-3.3-44.1,9.9c-9.9,13.3-5.6,33.1,2.6,44.9c15.1,21.6,41.8,14,51,34.2c5.6,12.4,0.3,25.7-1.6,30.7
					c-8.2,20.8-30,32.9-46.4,35.2C179.8,355.8,132.6,278.4,132.5,278.4z"/>
			</g>
			<path class="st15" d="M388.6,354.4C456.4,261.1,262.8,118,262.8,118S422,281,371.7,347.4s-212.3-81.8-212.3-81.8
				S320.8,447.8,388.6,354.4z"/>
			<path class="st15" d="M132.5,269.4c-0.1,0.1,36.5,93.1,101.6,94.6c33.1,0.8,70.5-22.1,83.1-58.4c18.8-53.6-28.6-99.7-41.5-107.7
				c-12.4-7.7-33.8-6.5-44.9,5.7c-11.1,12.3-8.7,32.4-1.6,44.9c13,22.9,40.3,17.9,47.6,38.8c4.4,12.8-2.1,25.6-4.5,30.4
				c-10.1,19.9-32.9,29.9-49.5,30.7C172.3,350.8,132.6,269.3,132.5,269.4z"/>
		</g>
	</g>
</g>
</svg>
